<?xml version="1.0" standalone="no"?><!DOCTYPE svg PUBLIC "-//W3C//DTD SVG 1.1//EN" "http://www.w3.org/Graphics/SVG/1.1/DTD/svg11.dtd"><svg t="1757950502703" class="icon" viewBox="0 0 1575 1024" version="1.1" xmlns="http://www.w3.org/2000/svg" p-id="11922" xmlns:xlink="http://www.w3.org/1999/xlink" width="307.6171875" height="200"><path d="M1531.072308 768.066785c-161.744162 215.368237-510.191659 215.477229-864.306741 241.962291-490.464103 36.62132-760.001375 36.62132-637.276357-460.055329C61.641857 420.055256-65.660826 159.564321 85.51111 46.32161c228.229296-171.008484 523.16171 193.896809 777.440098 101.580565 608.175487-220.817838 813.62545 426.376793 668.1211 620.16461z" fill="#63ABFF" opacity=".1" p-id="11923"></path><path d="M995.483801 893.996632a19.509572 115.31356 87.856 1 0 230.465672-8.62802 19.509572 115.31356 87.856 1 0-230.465672 8.62802Z" fill="#ABD1FF" opacity=".2" p-id="11924"></path><path d="M1210.635761 850.028786c9.482306-7.847426 16.784772-18.31066 19.94554-30.408774 2.615809-12.098115-2.615809-26.267078-14.168963-30.953735-13.079043-4.686657-26.812038 4.250689-37.275271 13.079043-10.463234 8.937346-22.561349 19.40058-36.185352 17.329732 14.168963-13.079043 21.03546-32.479623 16.784772-51.444235-0.54496-3.705729-2.070848-7.302466-4.686657-10.463234-7.302466-7.847426-19.94554-4.250689-28.882886 1.525888-27.248006 19.40058-35.204423 56.130892-35.204424 89.700435-2.615809-12.098115-0.54496-24.632197-0.54496-36.730312 0-12.098115-3.705729-26.267078-14.168963-32.479623-6.212545-3.705729-13.624003-5.340609-20.926468-5.340609-12.098115-0.54496-26.267078 1.08992-34.114503 9.918274-10.463234 11.008194-7.847426 29.863814 1.08992 41.961929 8.937346 12.098115 22.561349 19.94554 35.640391 28.337926 7.52045 4.686657 18.746628 17.438724 23.978245 24.087237 2.070848 2.724801 5.231617 4.250689 8.61037 4.250689h66.921102c2.833793 0 5.667585-0.653952 8.174402-1.961857 16.893764-8.392386 31.825671-18.746628 45.013705-30.408774z" fill="#ABD1FF" p-id="11925"></path><path d="M137.827281 879.238648a117.711385 19.727556 0 1 0 235.422769 0 117.711385 19.727556 0 1 0-235.422769 0Z" fill="#ABD1FF" opacity=".2" p-id="11926"></path><path d="M176.301465 786.486437s67.35707-2.17984 87.520594-16.67578c20.163524-14.386947 103.215446-31.498695 108.447063-8.283394s101.035605 115.095576 24.959173 115.531545c-76.076432 0.435968-176.240101-11.771138-196.403625-24.087237s-24.523205-66.485134-24.523205-66.485134z" fill="#ABD1FF" p-id="11927"></path><path d="M398.536199 869.10239c-75.640464 0.435968-176.240101-11.771138-196.403625-24.087237-15.258883-9.15533-21.471428-42.833865-23.651269-58.637708h-2.17984s4.359681 54.278027 24.523205 66.485134 120.763161 24.959173 196.403625 24.087237c21.907397 0 29.318854-7.847426 28.882886-19.727556-3.051777 7.52045-11.444162 11.88013-27.574982 11.88013z" fill="#91C5F9" p-id="11928"></path><path d="M358.427135 741.472731c-66.26715-9.15533-47.847498-25.613125-15.258883-36.512327 12.752067-4.250689 320.436547-112.261784 320.436547-112.261784l406.976213 96.45794c-0.653952 0.217984-121.962074 49.264394-232.153009 89.918419-21.689413 7.956418-24.087237 7.629442-79.891152 4.141697l-400.109716-41.743945z" fill="#ABD1FF" opacity=".2" p-id="11929"></path><path d="M458.808788 358.365771l278.03865-45.231689v263.324727l-263.978679-13.732995z" fill="#BBDDFF" opacity=".05" p-id="11930"></path><path d="M736.847438 313.134082l333.733574 24.959173-18.419652 229.319216-315.313922 9.046338z" fill="#BBDDFF" opacity=".1" p-id="11931"></path><path d="M839.517924 233.024945l-102.670486 80.109137 333.733574 24.959173 54.605003-81.962001z" fill="#BBDDFF" p-id="11932"></path><path d="M358.427135 270.518201l250.245684-30.299783 128.174619 72.915664-278.03865 45.231689z" fill="#BBDDFF" p-id="11933"></path><path d="M699.027206 455.150687c-4.359681 15.476867-16.566787 38.692168-28.882886 55.585932l-13.732995-12.643075 22.779333-48.392458c0.326976-0.326976 7.847426 1.852864 19.836548 5.449601z" opacity=".1" p-id="11934"></path><path d="M458.808788 358.365771l278.03865-45.231689v263.324727l-263.978679-13.732995z" fill="#A7D2FC" p-id="11935"></path><path d="M736.847438 313.134082l333.733574 24.959173-18.419652 229.319216-315.313922 9.046338z" fill="#91C5F9" p-id="11936"></path><path d="M1070.581012 338.093255v351.063305l-104.305366 20.272517-51.008267 9.70029-117.275416 22.343364V381.47208zM358.427135 434.115227l100.381653-75.749456L797.991963 381.47208l-49.918347 84.141842z" fill="#6C63FF" p-id="11937"></path><path d="M1070.581012 338.093255L797.991963 381.47208l88.828498 79.455185 291.771646-48.828427z" fill="#6C63FF" p-id="11938"></path><path d="M797.991963 381.47208v360.000651l-130.463452-13.297026-56.348875-5.776578-17.329732-1.852864-56.675852-5.776577-78.365264-7.956418V358.365771l278.03865 19.073604z" fill="#ABD1FF" p-id="11939"></path><path d="M1070.581012 338.093255v351.063305l-104.305366 20.272517-51.008267 9.70029-117.275416 22.343364V381.47208z" fill="#91C5F9" p-id="11940"></path><path d="M358.427135 434.115227l100.381653-75.749456L797.991963 381.47208l-49.918347 84.141842zM1070.581012 338.093255L797.991963 381.47208l88.828498 79.455185 291.771646-48.828427z" fill="#BBDDFF" p-id="11941"></path></svg>