<?xml version="1.0" standalone="no"?><!DOCTYPE svg PUBLIC "-//W3C//DTD SVG 1.1//EN" "http://www.w3.org/Graphics/SVG/1.1/DTD/svg11.dtd"><svg t="1743863339048" class="icon" viewBox="0 0 1095 1024" version="1.1" xmlns="http://www.w3.org/2000/svg" p-id="3623" xmlns:xlink="http://www.w3.org/1999/xlink" width="213.8671875" height="200"><path d="M523.373379 919.272755l-223.303128 95.99313a91.995697 91.995697 0 0 1-127.780928-94.503676l24.915501-227.262228a61.303085 61.303085 0 0 0-16.132102-48.566061L24.762175 477.748167a92.001173 92.001173 0 0 1 48.779624-152.920943l232.896964-47.640629a61.100476 61.100476 0 0 0 40.330257-28.611757L468.608559 44.793417a91.995697 91.995697 0 0 1 157.925947 0l121.83954 203.781421a61.297609 61.297609 0 0 0 40.330256 28.617233l232.940772 47.635153a91.990221 91.990221 0 0 1 48.779624 152.920943l-156.272215 167.185753a61.308561 61.308561 0 0 0-16.170434 48.566061l24.877169 227.262228a92.012125 92.012125 0 0 1-127.786404 94.503676l-223.25932-95.99313a61.319513 61.319513 0 0 0-48.440115 0z" fill="#FFD60F" p-id="3624"></path><path d="M293.017248 484.834027c0 32.088975 32.899414 58.07776 73.443232 58.077759 40.543818 0 73.443232-25.983309 73.443231-58.077759 0-32.099927-32.899414-58.07776-73.443231-58.07776-40.543818 0-73.443232 25.977833-73.443232 58.07776z m434.718001 58.077759h-0.038331c-40.565722-0.021904-73.4049-25.99426-73.4049-58.077759 0-32.099927 32.861082-58.07776 73.443231-58.07776 40.543818 0 73.4049 25.977833 73.4049 58.07776 0 32.083499-32.839178 58.055856-73.4049 58.077759zM460.531556 628.911336a22.50609 22.50609 0 0 0 3.493646 17.331332c25.386432 36.727092 59.090808 56.254274 99.338925 56.254274 40.248118 0 73.908686-19.48885 99.338926-56.254274a22.50609 22.50609 0 0 0-6.625881-31.837083 24.411715 24.411715 0 0 0-33.069167 6.368512c-16.975397 24.581469-36.294493 35.7469-59.643878 35.7469-23.349384 0-42.663005-11.170906-59.649353-35.7469a24.411715 24.411715 0 0 0-33.069167-6.368512 22.50609 22.50609 0 0 0-10.114051 14.505751z" fill="#E3A815" p-id="3625"></path></svg>