<?xml version="1.0" standalone="no"?><!DOCTYPE svg PUBLIC "-//W3C//DTD SVG 1.1//EN" "http://www.w3.org/Graphics/SVG/1.1/DTD/svg11.dtd"><svg t="1743863392609" class="icon" viewBox="0 0 1024 1024" version="1.1" xmlns="http://www.w3.org/2000/svg" p-id="3767" xmlns:xlink="http://www.w3.org/1999/xlink" width="200" height="200"><path d="M281.472 855.637333L512 737.792l230.528 117.845333c27.178667 13.866667 32.128 10.410667 27.178667-17.621333l-44.245334-250.794667 187.264-177.493333c21.034667-19.925333 19.541333-24.405333-10.453333-28.672L644.266667 344.618667l-115.541334-227.626667c-13.312-26.197333-20.138667-26.197333-33.450666 0L379.733333 344.618667l-258.005333 36.437333c-29.994667 4.266667-31.488 8.746667-10.453333 28.714667l187.306666 177.450666L254.293333 837.973333c-4.949333 28.032 0 31.488 27.178667 17.621334zM512 812.672l-200.192 102.357333c-75.477333 38.570667-137.813333-5.504-123.178667-88.576l38.016-215.466666-161.237333-152.832C3.456 399.445333 27.648 326.997333 112.426667 315.050667l223.573333-31.573334 99.84-196.693333c37.973333-74.837333 114.346667-74.837333 152.32 0l99.84 196.693333 223.573333 31.573334c84.778667 11.946667 108.970667 84.352 47.018667 143.104l-161.237333 152.789333 38.016 215.466667c14.677333 83.114667-47.701333 127.146667-123.178667 88.618666L512 812.672z" fill="#2c2c2c" p-id="3768"></path></svg>