<?xml version="1.0" standalone="no"?><!DOCTYPE svg PUBLIC "-//W3C//DTD SVG 1.1//EN" "http://www.w3.org/Graphics/SVG/1.1/DTD/svg11.dtd"><svg t="1737363228735" class="icon" viewBox="0 0 1024 1024" version="1.1" xmlns="http://www.w3.org/2000/svg" p-id="2670" xmlns:xlink="http://www.w3.org/1999/xlink" width="256" height="256"><path d="M797.866667 200.533333c-34.133333-46.933333-85.333333-72.533333-140.8-72.533333H362.666667C307.2 128 256 153.6 221.866667 200.533333l-119.466667 170.666667c-38.4 51.2-29.866667 119.466667 12.8 166.4l302.933333 298.666667c51.2 51.2 128 51.2 179.2 0l302.933334-298.666667c42.666667-42.666667 51.2-115.2 12.8-166.4l-119.466667-170.666667z m-179.2 230.4c-68.266667 34.133333-149.333333 34.133333-217.6 0-25.6-12.8-34.133333-42.666667-21.333334-68.266666s42.666667-34.133333 68.266667-21.333334c38.4 21.333333 85.333333 21.333333 123.733333 0 25.6-12.8 55.466667 0 68.266667 21.333334 12.8 25.6 0 55.466667-21.333333 68.266666z" p-id="2671" fill="#ffffff"></path></svg>