<?xml version="1.0" standalone="no"?><!DOCTYPE svg PUBLIC "-//W3C//DTD SVG 1.1//EN" "http://www.w3.org/Graphics/SVG/1.1/DTD/svg11.dtd"><svg t="1737363179925" class="icon" viewBox="0 0 1024 1024" version="1.1" xmlns="http://www.w3.org/2000/svg" p-id="2225" xmlns:xlink="http://www.w3.org/1999/xlink" width="256" height="256"><path d="M42.666667 320A149.333333 149.333333 0 0 1 192 170.666667h341.333333A149.333333 149.333333 0 0 1 682.666667 320v384a149.333333 149.333333 0 0 1-149.333334 149.333333h-341.333333A149.333333 149.333333 0 0 1 42.666667 704v-384zM362.666667 640a128 128 0 1 0 0-256 128 128 0 0 0 0 256z" p-id="2226" fill="#ffffff"></path><path d="M725.333333 393.130667l190.890667-118.186667A42.666667 42.666667 0 0 1 981.333333 311.296v401.493333a42.666667 42.666667 0 0 1-65.109333 36.266667L725.333333 630.826667v-237.653334z" p-id="2227" fill="#ffffff"></path></svg>