<?xml version="1.0" standalone="no"?><!DOCTYPE svg PUBLIC "-//W3C//DTD SVG 1.1//EN" "http://www.w3.org/Graphics/SVG/1.1/DTD/svg11.dtd"><svg t="1737363194084" class="icon" viewBox="0 0 1024 1024" version="1.1" xmlns="http://www.w3.org/2000/svg" p-id="2448" xmlns:xlink="http://www.w3.org/1999/xlink" width="256" height="256"><path d="M823.466667 166.4c-38.4-17.066667-85.333333-17.066667-179.2-17.066667H379.733333c-93.866667 0-145.066667 0-179.2 17.066667-34.133333 17.066667-59.733333 42.666667-72.533333 72.533333-17.066667 38.4-17.066667 85.333333-17.066667 179.2V597.333333c0 93.866667 0 145.066667 17.066667 179.2 17.066667 34.133333 42.666667 59.733333 72.533333 72.533334 38.4 17.066667 85.333333 17.066667 179.2 17.066666h264.533334c93.866667 0 145.066667 0 179.2-17.066666 34.133333-17.066667 59.733333-42.666667 72.533333-72.533334 17.066667-38.4 17.066667-85.333333 17.066667-179.2V418.133333c0-93.866667 0-145.066667-17.066667-179.2-17.066667-34.133333-42.666667-59.733333-72.533333-72.533333zM277.333333 388.266667c0-38.4 29.866667-68.266667 68.266667-68.266667s68.266667 29.866667 68.266667 68.266667-29.866667 68.266667-68.266667 68.266666-68.266667-29.866667-68.266667-68.266666z m413.866667 337.066666h-298.666667c-51.2 0-68.266667-64-29.866666-93.866666l213.333333-157.866667c34.133333-25.6 81.066667-12.8 98.133333 25.6l64 153.6c12.8 34.133333-8.533333 72.533333-46.933333 72.533333z" p-id="2449" fill="#ffffff"></path></svg>