<?xml version="1.0" standalone="no"?><!DOCTYPE svg PUBLIC "-//W3C//DTD SVG 1.1//EN" "http://www.w3.org/Graphics/SVG/1.1/DTD/svg11.dtd"><svg t="1737384641516" class="icon" viewBox="0 0 1024 1024" version="1.1" xmlns="http://www.w3.org/2000/svg" p-id="14654" xmlns:xlink="http://www.w3.org/1999/xlink" width="256" height="256"><path d="M569.7024 236.3392c-102.4512-57.344-86.1184-123.648-154.368-123.648H296.192c-106.7008 0-193.1776 86.4768-193.1776 193.1776v236.3392h466.688V236.3392z" fill="#7A7AF9" p-id="14655"></path><path d="M740.3008 911.3088H304.9472c-111.5648 0-201.984-90.4192-201.984-201.984V438.3744c0-111.5648 90.4192-201.984 201.984-201.984h435.3024c111.5648 0 201.984 90.4192 201.984 201.984v270.9504c0 111.5136-90.4192 201.984-201.9328 201.984z" fill="#CCDAFF" p-id="14656"></path><path d="M716.4928 674.2016H324.1984c-26.5216 0-47.9744-21.504-47.9744-47.9744s21.504-47.9744 47.9744-47.9744h392.2944c26.5216 0 47.9744 21.504 47.9744 47.9744s-21.504 47.9744-47.9744 47.9744z" fill="#7A7AF9" p-id="14657"></path></svg>