<?xml version="1.0" standalone="no"?><!DOCTYPE svg PUBLIC "-//W3C//DTD SVG 1.1//EN" "http://www.w3.org/Graphics/SVG/1.1/DTD/svg11.dtd"><svg t="1743912571407" class="icon" viewBox="0 0 1060 1024" version="1.1" xmlns="http://www.w3.org/2000/svg" p-id="10264" xmlns:xlink="http://www.w3.org/1999/xlink" width="207.03125" height="200"><path d="M524.936164 566.636489m-457.363511 0a457.363511 457.363511 0 1 0 914.727022 0 457.363511 457.363511 0 1 0-914.727022 0Z" fill="#E9E8F3" p-id="10265"></path><path d="M188.035965 412.962349L5.204902 660.188116h1049.85715l-195.366982-247.979377A31.183876 31.183876 0 0 0 835.189741 400.322485H213.107801a31.183876 31.183876 0 0 0-25.071836 12.639864z" fill="#FFD4C3" p-id="10266"></path><path d="M183.857326 409.875146L1.026262 657.095715A5.197313 5.197313 0 0 0 5.204902 665.385429h1049.85715a5.197313 5.197313 0 0 0 4.085087-8.414449l-195.372178-247.979377A36.381188 36.381188 0 0 0 835.194938 395.125173H213.107801a36.381188 36.381188 0 0 0-29.250475 14.749973zM1044.355588 654.990804H15.511173l176.708629-238.936054A25.986563 25.986563 0 0 1 213.107801 405.519798h622.08194a25.986563 25.986563 0 0 1 20.415044 9.906078L1044.35039 654.990804z" fill="#9D98B5" p-id="10267"></path><path d="M71.995566 578.382416l100.708327 40.913245a140.327441 140.327441 0 0 0 52.820288 10.321862h599.801061a140.327441 140.327441 0 0 0 52.472068-10.181535L982.98572 577.031114l65.787583 83.157002-41.152321 67.565064-965.489174-16.621005L11.613188 660.188116l60.382378-81.8057z" fill="#FFBBA0" p-id="10268"></path><path d="M5.204902 660.188116l52.825485 250.702769A31.183876 31.183876 0 0 0 88.54381 935.645685H962.809753a31.183876 31.183876 0 0 0 30.279543-23.730929L1055.062052 660.188116H5.204902z" fill="#FFFFFF" p-id="10269"></path><path d="M0.116733 661.258763l52.830682 250.702769a36.381188 36.381188 0 0 0 35.601592 28.881466h874.255548a36.381188 36.381188 0 0 0 35.326134-27.686084l61.977953-251.72664A5.197313 5.197313 0 0 0 1055.062052 654.990804H5.204902a5.197313 5.197313 0 0 0-5.088169 6.267959z m11.496455 4.126666h1036.811895l-60.387575 245.287169a25.986563 25.986563 0 0 1-25.232953 19.775775H88.54381a25.986563 25.986563 0 0 1-25.425254-20.633331L11.613188 665.385429z" fill="#9D98B5" p-id="10270"></path><path d="M224.79136 758.937056a25.830644 25.830644 0 0 0 6.117237 39.359249l69.202218 41.141926A129.932816 129.932816 0 0 0 366.511681 857.685996H681.895005a129.932816 129.932816 0 0 0 68.323872-19.411963l58.480162-36.152506a26.41794 26.41794 0 0 0 2.510302-43.184471l-117.750315 38.616033h-329.50962l-90.308505-25.674724-48.854738-12.941309z" fill="#F1F1F3" p-id="10271"></path><path d="M234.489545 748.490458l79.908682-18.980586a10.394625 10.394625 0 0 1 11.319747 4.771133l18.29454 30.529014a10.394625 10.394625 0 0 0 8.913391 5.051788h338.62051a10.394625 10.394625 0 0 0 9.251216-5.644281l15.020234-29.26087a10.394625 10.394625 0 0 1 11.58481-5.384416l81.982409 18.91302a10.394625 10.394625 0 0 1 2.479118 19.334003l-90.08502 47.103245a10.394625 10.394625 0 0 1-4.817908 1.184987H324.423843a10.394625 10.394625 0 0 1-4.927052-1.242158l-87.53314-47.113639a10.394625 10.394625 0 0 1 2.525894-19.266438z" fill="#E9E8F3" p-id="10272"></path><path d="M233.288966 743.428275l79.908682-18.970191a15.591938 15.591938 0 0 1 16.97962 7.151502l18.289343 30.529015a5.197313 5.197313 0 0 0 4.459294 2.525894h338.62051a5.197313 5.197313 0 0 0 4.625608-2.822141l15.020234-29.26087a15.591938 15.591938 0 0 1 17.379813-8.071427l81.982409 18.907824a15.591938 15.591938 0 0 1 3.721276 29.011399l-90.090217 47.103244a15.591938 15.591938 0 0 1-7.224264 1.772284H324.423843a15.591938 15.591938 0 0 1-7.390579-1.860638l-87.533139-47.113639a15.591938 15.591938 0 0 1 3.788841-28.897058z m2.401159 10.113971a5.197313 5.197313 0 0 0-1.262947 9.635817l87.533139 47.113639a5.197313 5.197313 0 0 0 2.463526 0.61848h392.537431a5.197313 5.197313 0 0 0 2.411553-0.592493l90.085019-47.098047a5.197313 5.197313 0 0 0-1.23696-9.667002l-81.987607-18.918218a5.197313 5.197313 0 0 0-5.789806 2.692208l-15.020233 29.26087a15.591938 15.591938 0 0 1-13.876825 8.47162H352.925905a15.591938 15.591938 0 0 1-13.377882-7.577682l-18.294541-30.529014a5.197313 5.197313 0 0 0-5.654676-2.385567l-79.908681 18.975389z" fill="#9D98B5" p-id="10273"></path><path d="M230.913794 566.636489l-28.288972-162.010629a5.197313 5.197313 0 1 0-10.238706 1.787876l29.037385 166.314003a5.197313 5.197313 0 0 0 5.119353 4.303375h602.030708a5.197313 5.197313 0 0 0 5.166129-4.620411l18.595984-166.314004a5.197313 5.197313 0 0 0-10.332257-1.153803L823.927165 566.636489h-593.013371z" fill="#979797" p-id="10274"></path><path d="M219.890294 569.572971l-42.659542 88.354314a5.197313 5.197313 0 0 0 9.365558 4.521662l42.654344-88.354314a5.197313 5.197313 0 0 0-9.36036-4.521662z" fill="#979797" p-id="10275"></path><path d="M860.495456 124.864916c29.104951 0 54.239155-18.783088 54.239155-38.6784 0-19.90051-22.831794-37.295915-51.827602-39.021424-9.084902-0.540521-23.190409-0.540521-31.339795 2.993652-14.744776 6.387497-20.778856 23.216395-20.778856 36.027772 0 13.445448 2.364777 28.949031 18.346514 35.13903 7.655641 2.962468 21.922265 3.53937 31.360584 3.53937zM761.08126 124.864916c-29.104951 0-54.239155-18.783088-54.239154-38.6784 0-19.90051 22.831794-37.295915 51.827601-39.021424 9.084902-0.540521 23.190409-0.540521 31.339795 2.993652 14.744776 6.387497 20.778856 23.216395 20.778856 36.027772 0 13.445448-2.364777 28.949031-18.346513 35.13903-7.655641 2.962468-21.922265 3.53937-31.360585 3.53937z" fill="#E9E8F3" p-id="10276"></path><path d="M860.495456 130.062229C891.772884 130.062229 919.931923 109.673171 919.931923 86.186516c0-23.16962-25.37328-42.342506-56.713075-44.208342-13.575381-0.805583-25.851433 0-33.720164 3.409437-15.280099 6.621376-23.907638 23.632181-23.907638 40.798905 0 20.217546 5.529941 33.735756 21.662399 39.982926 7.265843 2.816943 19.198873 3.892787 33.242011 3.892787z m0-10.394626c-12.749008 0-23.834876-0.997884-29.489552-3.19115-11.096262-4.298178-15.020233-13.892417-15.020233-30.289937 0-13.388277 6.65256-26.4959 17.644876-31.256639 5.904147-2.562275 16.958831-3.289899 28.969821-2.572669 26.438729 1.569588 46.93693 17.05758 46.93693 33.829308 0 16.891266-22.920149 33.481088-49.041842 33.481087z" fill="#9D98B5" p-id="10277"></path><path d="M761.08126 130.062229C729.803833 130.062229 701.644793 109.673171 701.644793 86.186516c0-23.16962 25.37328-42.342506 56.713076-44.208342 13.575381-0.805583 25.851433 0 33.720164 3.409437 15.280099 6.621376 23.907638 23.632181 23.907638 40.798905 0 20.217546-5.529941 33.735756-21.662399 39.982926-7.265843 2.816943-19.198873 3.892787-33.242012 3.892787z m0-10.394626c12.749008 0 23.834876-0.997884 29.489552-3.19115 11.096262-4.298178 15.020233-13.892417 15.020234-30.289937 0-13.388277-6.65256-26.4959-17.644877-31.256639-5.904147-2.562275-16.958831-3.289899-28.96982-2.572669-26.438729 1.569588-46.93693 17.05758-46.93693 33.829308 0 16.891266 22.920149 33.481088 49.041841 33.481087z" fill="#9D98B5" p-id="10278"></path><path d="M824.046703 574.380485l49.77986 88.354315a5.197313 5.197313 0 1 0 9.053719-5.093367l-49.774663-88.354314a5.197313 5.197313 0 1 0-9.058916 5.093366z" fill="#979797" p-id="10279"></path><path d="M289.456324 508.244682a369.46656 369.46656 0 0 1-3.305491-15.009839l-10.197128 2.016557c1.003081 5.056985 2.130898 10.202325 3.399043 15.436019l10.103576-2.442737z m-5.935331-30.144413a277.401364 277.401364 0 0 1-1.839849-15.196943l-10.353047 0.961503c0.478153 5.145339 1.117422 10.399823 1.912611 15.763449l10.280285-1.528009z m-2.775365-30.513423a203.708668 203.708668 0 0 1 0.129933-15.207337l-10.384231-0.488547c-0.244274 5.197313-0.285852 10.524558-0.13513 15.981736l10.394625-0.285852z m1.476037-30.289938a150.722066 150.722066 0 0 1 2.738983-14.822735l-10.11397-2.406356a161.116691 161.116691 0 0 0-2.926087 15.841409l10.301074 1.387682z m7.005977-29.172516c1.715113-4.755541 3.690092-9.329176 5.924936-13.720905l-9.261611-4.713962c-2.432342 4.77633-4.573635 9.744961-6.444667 14.900695l9.781342 3.534172z m13.632551-26.672608a113.815949 113.815949 0 0 1 9.240822-11.693953l-7.718009-6.964399c-3.653711 4.053904-7.016372 8.305306-10.082787 12.764599l8.559974 5.893753z m20.134389-22.312063c3.726473-3.201545 7.69722-6.236775 11.922635-9.105692l-5.841779-8.601552c-4.542451 3.087204-8.835431 6.361511-12.858152 9.822921l6.777296 7.884323z m25.139401-17.099159l0.103946-0.05717a106.752801 106.752801 0 0 1 13.450646-6.065264l-3.612133-9.750158a117.147427 117.147427 0 0 0-14.75517 6.657757l-0.114341 0.062368 4.927052 9.152467z m27.904372-10.363441a125.35918 125.35918 0 0 1 14.781157-2.401158l-1.065449-10.342653c-5.47277 0.566507-10.805213 1.429261-16.007723 2.598657l2.286817 10.145154z m29.858561-3.144374a174.421812 174.421812 0 0 1 15.129377 0.69644l0.914727-10.353047a184.795648 184.795648 0 0 0-16.03371-0.738018l-0.010394 10.394625z m30.487436 2.640235c4.895868 0.789992 9.895683 1.767086 15.015036 2.910495l2.266028-10.150352a270.452557 270.452557 0 0 0-15.612727-3.024836l-1.66314 10.264693z m29.822179 6.600587c4.802317 1.31492 9.718975 2.770168 14.760368 4.365742l3.128782-9.916472a409.865271 409.865271 0 0 0-15.144969-4.474886l-2.744181 10.025616z m29.359619 9.230427c4.693173 1.637153 9.516279 3.393845 14.542081 5.28047l3.653711-9.72937c-5.093366-1.917808-9.994432-3.695289-14.765565-5.363626l-3.430227 9.812526z m29.141332 10.914356c4.459294 1.756692 9.084902 3.612132 14.42774 5.779412l3.908379-9.63062c-5.374021-2.182871-10.030813-4.048707-14.521291-5.82099l-3.814828 9.672198z m28.725547 11.6056c6.215986 2.536289 10.342652 4.209823 14.479713 5.867765l3.866801-9.646212c-4.105877-1.647548-8.222149-3.315885-14.422543-5.846976l-3.923971 9.625423z m29.130937 11.615993c5.322048 2.026952 10.207522 3.80963 14.812341 5.394811l3.383451-9.822921a481.582988 481.582988 0 0 1-14.495305-5.285667l-3.700487 9.713777z m29.894943 10.176338c5.613098 1.590378 10.81041 2.827338 15.6647 3.705684l1.85544-10.228311a155.378858 155.378858 0 0 1-14.682408-3.477002l-2.837732 9.999629z m32.223338 5.311654a327.758126 327.758126 0 0 0 15.831014-0.379404l-0.514534-10.384231c-4.885474 0.244274-9.994432 0.363812-15.332072 0.36901l0.010395 10.394625z m31.729593-1.652746a181.422592 181.422592 0 0 0 15.851804-2.489512l-2.08932-10.186733c-4.667187 0.961503-9.646212 1.7411-14.942273 2.349185l1.179789 10.32706z m31.584069-6.704533a90.188966 90.188966 0 0 0 15.134575-6.678547l-5.093367-9.058915c-3.996733 2.245239-8.456028 4.209823-13.398672 5.898949l3.357464 9.833316z m28.845085-16.818503a56.286896 56.286896 0 0 0 10.358244-13.694919l-9.14727-4.937447a45.89227 45.89227 0 0 1-8.456027 11.184617l7.250251 7.447749z m16.283181-29.946916c1.127817-5.145339 1.725508-10.659688 1.803467-16.543046l-10.394625-0.13513c-0.067565 5.197313-0.592494 10.015221-1.559194 14.458924l10.150352 2.219252z m0.462561-33.356352a79.300596 79.300596 0 0 0-4.604819-16.044104l-9.625423 3.929168c1.767086 4.329361 3.118388 9.006943 3.996733 13.933995l10.233509-1.819059z m-12.951703-30.898024c-3.80963-5.041393-8.185767-9.105692-12.863349-11.943424l-5.384416 8.892602c3.502989 2.120504 6.912426 5.290864 9.952854 9.318781l8.294911-6.267959z m-31.495715-16.184431c-6.325129 0.971897-11.9902 4.485281-16.491073 10.275087l8.201359 6.3823c2.926087-3.757657 6.262762-5.831385 9.869697-6.3823l-1.574786-10.275087z m-24.32862 26.683003a43.241641 43.241641 0 0 0-0.488548 17.702047l10.238706-1.772284a32.8782 32.8782 0 0 1 0.34822-13.471434l-10.098378-2.458329z m5.197312 34.052792a72.065937 72.065937 0 0 0 9.542266 13.835246l7.83235-6.834466a61.692101 61.692101 0 0 1-8.170175-11.829083l-9.209638 4.828303z m21.91187 25.347294c4.469689 3.378253 9.251216 6.293946 14.219848 8.658723l4.464491-9.391544a71.494232 71.494232 0 0 1-12.41638-7.556893l-6.267959 8.289714z m30.284741 14.13669c5.74303 1.200579 11.470469 1.600772 17.047185 1.143409l-0.841964-10.358244a49.047039 49.047039 0 0 1-14.069126-0.961503l-2.130898 10.171141z m33.886478-3.118388a50.985637 50.985637 0 0 0 4.048707-2.026951 39.988123 39.988123 0 0 0 10.353047-8.430042l-7.754391-6.92282c-2.375172 2.666221-4.901066 4.729554-7.666036 6.273156a40.533841 40.533841 0 0 1-3.217136 1.611167l4.230612 9.490293z m23.845271-25.030257a107.948183 107.948183 0 0 0 5.862568-15.300889l-9.942459-3.03523a97.673096 97.673096 0 0 1-5.285667 13.824852l9.365558 4.511267z m9.770947-30.898024c1.003081-4.916658 1.881427-10.155549 2.645432-15.706278l-10.301073-1.413669a235.750101 235.750101 0 0 1-2.531091 15.04622l10.186732 2.078925z m4.386532-31.209862c0.452166-5.030999 0.821175-10.280284 1.112225-15.747857l-10.384231-0.545718a422.635068 422.635068 0 0 1-1.081041 15.363256l10.353047 0.935516z m1.715113-31.594463c0.114341-5.072577 0.176709-10.311468 0.176709-15.711476h-10.394625c0 5.316851-0.062368 10.472585-0.176709 15.467202l10.394625 0.244274z m0.015592-31.526899c-0.103946-5.093366-0.249471-10.316666-0.446969-15.675095l-10.389428 0.384601c0.197498 5.301259 0.343023 10.46219 0.441772 15.498387l10.394625-0.207893z m-1.143408-31.438544c-0.265063-5.098564-0.571704-10.311468-0.90953-15.628319l-10.373836 0.665256c0.337825 5.275272 0.639269 10.446598 0.899135 15.498386l10.379033-0.535323zM827.596467 1.984854a5.197313 5.197313 0 1 1 7.962283 6.683744l-26.210047 31.183875a5.197313 5.197313 0 0 1-7.962283-0.005197l-25.768276-30.799274a5.197313 5.197313 0 1 1 7.972677-6.668153l21.787135 26.038537 22.218511-26.433532zM143.489799 268.08726l20.78925 51.973126a7.795969 7.795969 0 1 0 14.479713-5.789806l-20.78925-51.973126a7.795969 7.795969 0 1 0-14.479713 5.789806zM252.477444 267.926143l-10.394625 31.183876a7.795969 7.795969 0 1 0 14.791552 4.927052l10.394625-31.183875a7.795969 7.795969 0 1 0-14.791552-4.927053zM74.485079 344.929527l31.183876 15.591938a7.795969 7.795969 0 0 0 6.964399-13.949587l-31.183876-15.591938a7.795969 7.795969 0 0 0-6.964399 13.949587z" fill="#9D98B5" p-id="10280"></path><path d="M806.900769 145.654167c15.072207 0 24.67684-34.577721 24.67684-64.914435 0-30.331516-9.604634-39.031818-24.67684-39.031818-15.072207 0-27.296286 8.700301-27.296286 39.031818 0 30.336714 12.218882 64.914435 27.296286 64.914435z" fill="#FFD4C3" p-id="10281"></path><path d="M806.900769 150.851479c18.29454 0 29.874153-33.611021 29.874152-70.111747C836.774921 50.179534 826.962395 36.510601 806.900769 36.510601 786.20507 36.510601 774.40717 50.761633 774.40717 80.739732c0 34.884362 13.991166 70.111747 32.493599 70.111747z m0-10.394625c-10.13476 0-22.098973-30.113229-22.098974-59.717122 0-24.624867 7.624458-33.834505 22.098974-33.834505 13.44025 0 19.479528 8.409252 19.479527 33.834505 0 30.882432-9.937262 59.717122-19.479527 59.717122z" fill="#9D98B5" p-id="10282"></path></svg>