<?xml version="1.0" standalone="no"?><!DOCTYPE svg PUBLIC "-//W3C//DTD SVG 1.1//EN" "http://www.w3.org/Graphics/SVG/1.1/DTD/svg11.dtd"><svg t="1737362315980" class="icon" viewBox="0 0 1024 1024" version="1.1" xmlns="http://www.w3.org/2000/svg" p-id="5564" xmlns:xlink="http://www.w3.org/1999/xlink" width="256" height="256"><path d="M779.4688 139.3152H250.2656A152.9344 152.9344 0 0 0 97.28 291.84v412.7232a152.9344 152.9344 0 0 0 152.7808 152.7808h529.408a152.8832 152.8832 0 0 0 152.7296-152.7808V291.84a152.8832 152.8832 0 0 0-152.7296-152.5248z m-529.2032 30.72h529.2032A122.1632 122.1632 0 0 1 901.4784 291.84v217.344c-120.4224-88.2688-226.4576-80.384-295.9872-56.6784-112.0768 38.1952-192.7168 136.5504-222.0544 223.3344C286.72 584.192 189.44 592.3328 128 612.352V291.84a122.2144 122.2144 0 0 1 122.2656-121.8048z m651.2128 534.7328a122.1632 122.1632 0 0 1-122.0096 122.0608H250.2656A122.2144 122.2144 0 0 1 128 704.768V645.12c65.3312-24.6784 159.1296-29.7984 251.4944 70.8608a15.36 15.36 0 0 0 26.3168-7.0144c18.176-81.92 97.7408-189.0304 209.408-227.1232 94.0544-32.0512 192.8192-9.1136 286.0544 66.56z" fill="#691bfd" p-id="5565"></path><path d="M325.4784 461.7728a87.7568 87.7568 0 1 0-87.7568-87.7568 87.8592 87.8592 0 0 0 87.7568 87.7568z m0-144.7424a57.0368 57.0368 0 1 1-57.0368 56.9856 57.0368 57.0368 0 0 1 57.0368-56.9856z" fill="#691bfd" p-id="5566"></path></svg>