<?xml version="1.0" standalone="no"?><!DOCTYPE svg PUBLIC "-//W3C//DTD SVG 1.1//EN" "http://www.w3.org/Graphics/SVG/1.1/DTD/svg11.dtd"><svg t="1737362339471" class="icon" viewBox="0 0 1024 1024" version="1.1" xmlns="http://www.w3.org/2000/svg" p-id="5783" xmlns:xlink="http://www.w3.org/1999/xlink" width="256" height="256"><path d="M763.2384 161.024h-60.6208a99.7376 99.7376 0 0 0-99.1744-90.4704H427.2128a99.7376 99.7376 0 0 0-99.1744 90.4704H267.4176a133.9904 133.9904 0 0 0-133.8368 133.8368v503.04A133.9904 133.9904 0 0 0 267.4176 931.84h495.8208a133.9904 133.9904 0 0 0 133.8368-133.8368V294.8608a133.9904 133.9904 0 0 0-133.8368-133.8368zM427.2128 101.2736h176.2304a69.0176 69.0176 0 0 1 68.9152 68.9152v5.12a69.1712 69.1712 0 0 1-43.1104 58.9312h-0.4608c-1.792 0.7168-3.6352 1.3824-5.5296 1.9456l-1.28 0.3072c-1.6384 0.4608-3.2768 0.9216-5.12 1.2288l-2.7648 0.4608c-1.2288 0-2.5088 0.4096-3.7888 0.512a59.136 59.136 0 0 1-6.7584 0.3584H427.2128a59.136 59.136 0 0 1-6.7584-0.3584c-1.28 0-2.5088-0.3584-3.7888-0.512l-2.7648-0.4608c-1.6896-0.3072-3.328-0.768-5.12-1.1776l-1.3312-0.3584c-1.8944-0.5632-3.7376-1.2288-5.5296-1.9456h-0.4608A69.2224 69.2224 0 0 1 358.4 175.2576v-5.12a69.0176 69.0176 0 0 1 68.8128-68.864z m439.1424 696.6272A103.2192 103.2192 0 0 1 763.2384 901.12H267.4176a103.2192 103.2192 0 0 1-103.1168-103.1168V294.8608a103.2192 103.2192 0 0 1 103.1168-103.1168h62.5664a99.7376 99.7376 0 0 0 55.04 68.608l1.1264 0.5632c1.9968 0.9216 3.9936 1.6896 5.9904 2.4576l2.6624 0.9728c1.792 0.6144 3.5328 1.1776 5.12 1.6896l3.84 1.024 4.7104 1.024c1.792 0.3584 3.584 0.5632 5.12 0.8192l3.7376 0.512c3.1232 0.3072 6.2464 0.4608 9.4208 0.4608h176.2304c3.1744 0 6.2976 0 9.4208-0.4608l3.7376-0.512c1.7408-0.256 3.5328-0.4608 5.12-0.8192l4.7104-1.024 3.84-1.024c1.8432-0.512 3.584-1.0752 5.12-1.6896l2.6624-0.9728c1.9968-0.768 3.9936-1.536 5.9904-2.4576l1.1264-0.5632a99.7376 99.7376 0 0 0 55.04-68.608h62.5664a103.2192 103.2192 0 0 1 103.1168 103.1168z" fill="#691bfd" p-id="5784"></path><path d="M679.0144 410.1632a15.36 15.36 0 0 0-21.76 0l-125.184 125.184-125.2352-125.184a15.36 15.36 0 0 0-21.7088 21.7088l125.2352 125.184-125.2352 125.2352a15.36 15.36 0 0 0 10.8544 26.2144 15.36 15.36 0 0 0 10.8544-4.5056l125.2352-125.184 125.184 125.184a15.36 15.36 0 0 0 21.76-21.7088l-125.2352-125.2352 125.2352-125.184a15.36 15.36 0 0 0 0-21.7088z" fill="#691bfd" p-id="5785"></path></svg>