<?xml version="1.0" standalone="no"?><!DOCTYPE svg PUBLIC "-//W3C//DTD SVG 1.1//EN" "http://www.w3.org/Graphics/SVG/1.1/DTD/svg11.dtd"><svg t="1737362282903" class="icon" viewBox="0 0 1024 1024" version="1.1" xmlns="http://www.w3.org/2000/svg" p-id="5117" xmlns:xlink="http://www.w3.org/1999/xlink" width="256" height="256"><path d="M784.6912 235.2128h-145.8688a108.032 108.032 0 0 1-52.48-13.568L474.368 159.5904a138.9056 138.9056 0 0 0-67.3792-17.408H240.64a139.1104 139.1104 0 0 0-139.0592 138.9568v448.2048A139.1104 139.1104 0 0 0 240.64 868.3008h544.0512a139.0592 139.0592 0 0 0 138.9568-138.9568V374.2208a139.1104 139.1104 0 0 0-138.9568-139.008zM240.64 172.9024h166.3488a108.1856 108.1856 0 0 1 52.48 13.568l111.9744 62.0544a138.9056 138.9056 0 0 0 67.3792 17.408h145.8688a108.3904 108.3904 0 0 1 108.2368 108.288v12.3392H132.3008V281.1392A108.3904 108.3904 0 0 1 240.64 172.9024z m652.288 556.4416a108.3392 108.3392 0 0 1-108.2368 108.2368H240.64a108.3904 108.3904 0 0 1-108.2368-108.2368V417.28H892.928z" fill="#691bfd" p-id="5118"></path><path d="M563.456 762.112h200.96a15.36 15.36 0 0 0 0-30.72h-200.96a15.36 15.36 0 1 0 0 30.72z" fill="#691bfd" p-id="5119"></path></svg>