<?xml version="1.0" standalone="no"?><!DOCTYPE svg PUBLIC "-//W3C//DTD SVG 1.1//EN" "http://www.w3.org/Graphics/SVG/1.1/DTD/svg11.dtd"><svg t="1737362357985" class="icon" viewBox="0 0 1024 1024" version="1.1" xmlns="http://www.w3.org/2000/svg" p-id="6006" xmlns:xlink="http://www.w3.org/1999/xlink" width="256" height="256"><path d="M731.648 83.968H293.1712a154.2656 154.2656 0 0 0-154.112 154.112v547.3792a154.2656 154.2656 0 0 0 154.112 154.0608h338.5856a69.0176 69.0176 0 0 0 36.7104-10.5472l1.3824-0.9728c1.28-0.8192 2.56-1.6384 3.7888-2.56s3.328-2.6624 5.12-4.096l172.2368-158.0032a108.3392 108.3392 0 0 0 34.7648-79.5648V238.08a154.2656 154.2656 0 0 0-154.112-154.112zM293.1712 907.6736a122.368 122.368 0 0 1-122.2656-122.2144V238.08a122.368 122.368 0 0 1 122.2656-122.2656h438.4768a122.368 122.368 0 0 1 122.2656 122.2656v429.7728h-127.1808a91.392 91.392 0 0 0-91.2896 91.3408v148.48h-3.6864z m374.1184-19.2512v-129.2288a59.4944 59.4944 0 0 1 59.4432-59.4944h125.4912c-0.512 2.304-1.1264 4.5056-1.792 6.7072l-0.6656 1.8944c-0.5632 1.6896-1.1776 3.2768-1.8432 5.12-0.256 0.6656-0.5632 1.28-0.8192 1.9456-0.9216 1.9968-1.8944 3.9936-2.9696 5.9392a1.28 1.28 0 0 0 0 0.3584c-1.1776 2.048-2.4576 3.9936-3.7888 5.9392l-1.2288 1.6384c-1.024 1.4336-2.1504 2.7648-3.2768 4.1472l-1.3824 1.5872c-1.5872 1.7408-3.2256 3.4816-5.12 5.12z" fill="#691bfd" p-id="6007"></path><path d="M319.4368 327.68h379.8528a15.9232 15.9232 0 0 0 0-31.8464H319.4368a15.9232 15.9232 0 0 0 0 31.8464zM319.4368 530.7392h379.8528a15.9232 15.9232 0 0 0 0-31.8464H319.4368a15.9232 15.9232 0 0 0 0 31.8464zM468.8896 704.4096H319.4368a15.9232 15.9232 0 0 0 0 31.8464h149.4528a15.9232 15.9232 0 1 0 0-31.8464z" fill="#691bfd" p-id="6008"></path></svg>