<?xml version="1.0" standalone="no"?><!DOCTYPE svg PUBLIC "-//W3C//DTD SVG 1.1//EN" "http://www.w3.org/Graphics/SVG/1.1/DTD/svg11.dtd"><svg t="1737362366533" class="icon" viewBox="0 0 1024 1024" version="1.1" xmlns="http://www.w3.org/2000/svg" p-id="6229" xmlns:xlink="http://www.w3.org/1999/xlink" width="256" height="256"><path d="M513.8432 465.92A157.0816 157.0816 0 1 0 670.72 623.0528 157.2352 157.2352 0 0 0 513.8432 465.92z m0 283.4432A126.3616 126.3616 0 1 1 640 623.0528a126.5152 126.5152 0 0 1-126.1568 126.3616z" fill="#691bfd" p-id="6230"></path><path d="M908.032 143.36a47.8208 47.8208 0 0 0-41.8816-24.2176h-212.0192a48.2816 48.2816 0 0 0-42.1376 24.7296L534.528 282.6752c-6.8608-0.4096-13.7216-0.6656-20.48-0.6656s-13.1072 0.256-19.6096 0.6144L416.8192 143.9232a48.384 48.384 0 0 0-42.1888-24.7296h-211.968a48.2816 48.2816 0 0 0-41.728 72.6528L248.2176 409.6a341.0432 341.0432 0 1 0 531.8656 0.8192l127.744-218.4704a47.8208 47.8208 0 0 0 0.2048-48.5888zM147.456 176.3328a17.5616 17.5616 0 0 1 15.36-26.4192h211.968a17.6128 17.6128 0 0 1 15.36 8.96L460.8 286.1056a340.5312 340.5312 0 0 0-191.1296 99.2256z m366.3872 756.992a310.3232 310.3232 0 1 1 310.4768-310.272 310.6304 310.6304 0 0 1-310.4768 310.272z m367.4624-756.992l-122.5728 209.92a340.3776 340.3776 0 0 0-191.0272-99.7376L638.8224 158.72a17.5104 17.5104 0 0 1 15.36-8.96h212.0192a17.5104 17.5104 0 0 1 15.36 26.4192z" fill="#691bfd" p-id="6231"></path></svg>