<?xml version="1.0" standalone="no"?><!DOCTYPE svg PUBLIC "-//W3C//DTD SVG 1.1//EN" "http://www.w3.org/Graphics/SVG/1.1/DTD/svg11.dtd"><svg t="1737362561441" class="icon" viewBox="0 0 1024 1024" version="1.1" xmlns="http://www.w3.org/2000/svg" p-id="6452" xmlns:xlink="http://www.w3.org/1999/xlink" width="256" height="256"><path d="M851.7632 285.2352h-90.88l12.5952-12.8a92.16 92.16 0 0 0-4.864-133.5808 92.16 92.16 0 0 0-125.3888 3.7888l-117.76 116.9408-117.76-116.9408a92.16 92.16 0 0 0-125.3888-3.7888 92.16 92.16 0 0 0-5.12 133.5808l12.5952 12.8H186.2656a82.432 82.432 0 0 0-82.3808 82.3296v74.0864a82.5344 82.5344 0 0 0 73.5232 81.92v268.6464a121.5488 121.5488 0 0 0 121.3952 121.3952h440.32a121.5488 121.5488 0 0 0 121.3952-121.3952v-268.6976a82.5344 82.5344 0 0 0 73.472-81.92V367.5648a82.3808 82.3808 0 0 0-82.2272-82.3296z m-186.9312-120.7808a61.44 61.44 0 0 1 83.5072-2.5088 61.44 61.44 0 0 1 3.2256 88.9344l-33.792 34.3552h-174.6944zM299.008 250.88a61.44 61.44 0 0 1 3.072-88.9344 61.44 61.44 0 0 1 83.5072 2.5088l121.9072 120.7808H332.8z m530.8928 541.2864a90.7776 90.7776 0 0 1-90.6752 90.6752h-440.32a90.7264 90.7264 0 0 1-90.6752-90.6752v-268.1856h305.7152v322.9696a15.36 15.36 0 0 0 30.72 0v-322.9696h285.3376z m73.472-350.5152a51.6608 51.6608 0 0 1-51.6096 51.6096h-307.2V352.4096a15.36 15.36 0 0 0-30.72 0v140.8512h-327.68a51.712 51.712 0 0 1-51.5584-51.6096V367.5648a51.712 51.712 0 0 1 51.6608-51.6096h665.6a51.6608 51.6608 0 0 1 51.6096 51.6096z" fill="#691bfd" p-id="6453"></path></svg>