<?xml version="1.0" standalone="no"?><!DOCTYPE svg PUBLIC "-//W3C//DTD SVG 1.1//EN" "http://www.w3.org/Graphics/SVG/1.1/DTD/svg11.dtd"><svg t="1737362575474" class="icon" viewBox="0 0 1024 1024" version="1.1" xmlns="http://www.w3.org/2000/svg" p-id="6670" xmlns:xlink="http://www.w3.org/1999/xlink" width="256" height="256"><path d="M475.3408 495.616H295.8848a188.9792 188.9792 0 0 1-188.7744-188.7744v-6.0928a188.928 188.928 0 0 1 188.7744-188.7232H302.08a188.8768 188.8768 0 0 1 188.6208 188.7232V480.256a15.36 15.36 0 0 1-15.36 15.36zM295.8848 142.7456a158.208 158.208 0 0 0-158.0544 158.0032v6.0928A158.2592 158.2592 0 0 0 295.8848 464.896h164.096V300.7488A158.1568 158.1568 0 0 0 302.08 142.7456zM302.08 928.2048h-6.1952a188.928 188.928 0 0 1-188.7744-188.7232v-6.0928a188.9792 188.9792 0 0 1 188.7744-188.7744h179.456a15.36 15.36 0 0 1 15.36 15.36v179.5072A188.8768 188.8768 0 0 1 302.08 928.2048z m-6.0928-352.8704a158.2592 158.2592 0 0 0-158.0544 158.0544v6.0928a158.208 158.208 0 0 0 158.0544 158.0032H302.08a158.1568 158.1568 0 0 0 158.0032-158.0032v-164.1472zM727.04 495.616h-179.2a15.36 15.36 0 0 1-15.36-15.36V300.7488a188.8768 188.8768 0 0 1 188.7232-188.7232H727.04a188.928 188.928 0 0 1 188.7744 188.7232v6.0928A188.9792 188.9792 0 0 1 727.04 495.616z m-163.84-30.72h163.84a158.2592 158.2592 0 0 0 158.0544-158.0544v-6.0928A158.208 158.208 0 0 0 727.04 142.7456h-6.0928a158.1568 158.1568 0 0 0-158.0032 158.0032zM727.04 928.2048h-6.0928a188.8768 188.8768 0 0 1-188.7232-188.7232v-179.5072a15.36 15.36 0 0 1 15.36-15.36h179.2a188.9792 188.9792 0 0 1 188.7744 188.7744v6.0928A188.928 188.928 0 0 1 727.04 928.2048z m-163.84-352.8704v164.1472a158.1568 158.1568 0 0 0 158.0032 158.0032H727.04a158.208 158.208 0 0 0 158.0544-158.0032v-6.0928A158.2592 158.2592 0 0 0 727.04 575.3344z" fill="#691bfd" p-id="6671"></path></svg>