<?xml version="1.0" standalone="no"?><!DOCTYPE svg PUBLIC "-//W3C//DTD SVG 1.1//EN" "http://www.w3.org/Graphics/SVG/1.1/DTD/svg11.dtd"><svg t="1737362305902" class="icon" viewBox="0 0 1024 1024" version="1.1" xmlns="http://www.w3.org/2000/svg" p-id="5340" xmlns:xlink="http://www.w3.org/1999/xlink" width="256" height="256"><path d="M115.2 340.736l360.4992 182.784a87.04 87.04 0 0 0 79.7696-0.4608l349.7984-182.4768a29.2864 29.2864 0 0 0 0-51.968l-349.7984-182.4256a87.04 87.04 0 0 0-79.7696-0.4608L115.2 288.4608a29.3376 29.3376 0 0 0 0 52.2752zM489.5744 133.12a56.32 56.32 0 0 1 51.712 0.3072l347.392 181.1968-347.392 181.1968a56.6784 56.6784 0 0 1-51.712 0.3072L131.584 314.624z" fill="#691bfd" p-id="5341"></path><path d="M104.7552 528.5888l371.8656 188.5184a84.8384 84.8384 0 0 0 77.5168-0.4096l360.7552-188.2112a15.36 15.36 0 1 0-14.1824-27.2384l-360.7552 188.2112a54.0672 54.0672 0 0 1-49.408 0.256L118.6816 501.1968a15.36 15.36 0 1 0-13.9264 27.392zM532.48 415.1808a15.36 15.36 0 0 0 7.1168-1.7408l163.2256-85.1456a15.36 15.36 0 1 0-14.2336-27.2384l-163.3792 85.1456a15.36 15.36 0 0 0 7.2704 28.9792z" fill="#691bfd" p-id="5342"></path><path d="M900.7104 694.6816l-360.7552 188.2112a54.0672 54.0672 0 0 1-49.408 0.256l-371.8656-188.5184a15.36 15.36 0 1 0-13.9264 27.2896l371.8656 188.5184a84.8384 84.8384 0 0 0 77.5168-0.4096L914.8928 721.92a15.36 15.36 0 1 0-14.1824-27.2384z" fill="#691bfd" p-id="5343"></path></svg>