<?xml version="1.0" standalone="no"?><!DOCTYPE svg PUBLIC "-//W3C//DTD SVG 1.1//EN" "http://www.w3.org/Graphics/SVG/1.1/DTD/svg11.dtd"><svg t="1737362276378" class="icon" viewBox="0 0 1024 1024" version="1.1" xmlns="http://www.w3.org/2000/svg" p-id="4894" xmlns:xlink="http://www.w3.org/1999/xlink" width="256" height="256"><path d="M877.568 461.2096l-282.7264-217.8048a128.4608 128.4608 0 0 0-158.1568 0.9728L161.9968 461.312a128 128 0 0 0-48.896 100.9152v232.3968a128.7168 128.7168 0 0 0 128.6144 128.5632h557.3632a128.6656 128.6656 0 0 0 128.5632-128.5632V563.2a129.3312 129.3312 0 0 0-50.0736-101.9904z m-285.9008 431.2576H422.2464v-181.0944a31.0272 31.0272 0 0 1 30.72-30.976h107.52a31.0784 31.0784 0 0 1 31.0272 30.976z m305.2544-97.8432a97.9456 97.9456 0 0 1-97.8432 97.8432h-176.6912v-181.0944a61.7984 61.7984 0 0 0-61.7472-61.44h-107.52a61.7984 61.7984 0 0 0-61.44 61.44v181.0944H241.7152a97.9968 97.9968 0 0 1-97.8944-97.8432v-232.3968a97.28 97.28 0 0 1 37.2224-76.8L455.68 268.4928a97.792 97.792 0 0 1 120.4224-0.7168l282.7264 217.7536a98.6112 98.6112 0 0 1 38.0928 77.6704z" fill="#691bfd" p-id="4895"></path><path d="M934.2464 373.76l-337.5616-240.9472C558.08 103.1168 480.256 94.5152 437.248 128L90.8288 391.6288a15.36 15.36 0 0 0 18.5856 24.4736l346.5216-263.8848c28.7232-22.2208 90.368-19.6608 122.1632 5.12l0.4608 0.4096 337.92 241.1008a15.36 15.36 0 1 0 17.7664-25.088z" fill="#691bfd" p-id="4896"></path></svg>