<?xml version="1.0" standalone="no"?><!DOCTYPE svg PUBLIC "-//W3C//DTD SVG 1.1//EN" "http://www.w3.org/Graphics/SVG/1.1/DTD/svg11.dtd"><svg t="1737365325986" class="icon" viewBox="0 0 1024 1024" version="1.1" xmlns="http://www.w3.org/2000/svg" p-id="30037" xmlns:xlink="http://www.w3.org/1999/xlink" width="256" height="256"><path d="M583.238 523.293l399.297-397.137c18.87-18.828 18.954-49.295 0.166-68.123-18.828-18.994-49.21-18.994-68.081-0.251l-399.339 397.301-395.931-397.095c-18.703-18.745-49.251-18.911-68.081-0.083-18.828 18.745-18.87 49.251-0.083 68.081l395.764 397.055-399.049 396.971c-18.87 18.745-18.954 49.21-0.207 68.123 9.436 9.519 21.737 14.214 34.122 14.214 12.304 0 24.606-4.697 33.999-14.048l399.173-397.055 399.465 400.711c9.436 9.519 21.737 14.214 34.122 14.214 12.304 0 24.606-4.697 33.957-14.048 18.828-18.828 18.87-49.295 0.083-68.123l-399.38-400.711zM583.238 523.293z" fill="#272636" p-id="30038"></path></svg>