<?xml version="1.0" standalone="no"?><!DOCTYPE svg PUBLIC "-//W3C//DTD SVG 1.1//EN" "http://www.w3.org/Graphics/SVG/1.1/DTD/svg11.dtd"><svg t="1733105284788" class="icon" viewBox="0 0 1024 1024" version="1.1" xmlns="http://www.w3.org/2000/svg" p-id="21655" xmlns:xlink="http://www.w3.org/1999/xlink" width="256" height="256"><path d="M837.461333 0.597333a186.026667 186.026667 0 0 1 186.026667 186.026667v650.837333a186.026667 186.026667 0 0 1-186.026667 186.026667H186.538667a186.026667 186.026667 0 0 1-186.026667-186.026667V186.538667a186.026667 186.026667 0 0 1 186.026667-186.026667h650.922666z m0 104.618667H186.538667a81.322667 81.322667 0 0 0-81.322667 79.957333v652.288c0 44.458667 35.669333 80.64 79.957333 81.322667h652.288a81.322667 81.322667 0 0 0 81.322667-79.957333V186.538667a81.322667 81.322667 0 0 0-79.957333-81.322667h-1.365334z" fill="#e6e6e6" p-id="21656"></path></svg>