<?xml version="1.0" standalone="no"?><!DOCTYPE svg PUBLIC "-//W3C//DTD SVG 1.1//EN" "http://www.w3.org/Graphics/SVG/1.1/DTD/svg11.dtd"><svg t="1737363809392" class="icon" viewBox="0 0 1024 1024" version="1.1" xmlns="http://www.w3.org/2000/svg" p-id="13867" xmlns:xlink="http://www.w3.org/1999/xlink" width="256" height="256"><path d="M512 48.761905a438.857143 438.857143 0 1 1 0 877.714285 438.857143 438.857143 0 0 1 0-877.714285z m0 76.995047a361.862095 361.862095 0 1 0 0 723.724191A361.862095 361.862095 0 0 0 512 125.805714z m249.856 418.474667a27.355429 27.355429 0 1 1-0.097524 54.759619 27.355429 27.355429 0 0 1 0.097524-54.759619zM429.884952 345.380571c17.017905 0 30.817524 13.799619 30.817524 30.768762v191.634286a30.72 30.72 0 0 1-54.174476 20.089905L296.423619 459.434667v108.397714a30.817524 30.817524 0 0 1-61.586286 0v-191.634286a30.866286 30.866286 0 0 1 54.125715-20.041143l110.153142 128.390096V376.149333c0-16.969143 13.750857-30.768762 30.768762-30.768762z m194.998858 0.048762c62.268952 0 112.981333 56.807619 112.981333 126.585905 0 69.827048-50.712381 126.634667-112.981333 126.634667-62.22019 0-112.88381-56.807619-112.88381-126.634667 0-69.729524 50.614857-126.585905 112.88381-126.585905z m0 61.586286c-28.281905 0-51.297524 29.159619-51.297524 64.999619 0 35.888762 23.015619 65.048381 51.297524 65.048381 28.281905 0 51.395048-29.159619 51.395047-65.048381 0-35.84-23.064381-64.999619-51.395047-64.999619z" p-id="13868" fill="#691bfd"></path></svg>