<?xml version="1.0" standalone="no"?><!DOCTYPE svg PUBLIC "-//W3C//DTD SVG 1.1//EN" "http://www.w3.org/Graphics/SVG/1.1/DTD/svg11.dtd"><svg t="1737364093995" class="icon" viewBox="0 0 1024 1024" version="1.1" xmlns="http://www.w3.org/2000/svg" p-id="17385" xmlns:xlink="http://www.w3.org/1999/xlink" width="256" height="256"><path d="M213.333333 117.333333a10.666667 10.666667 0 0 0-10.666666 10.666667v768c0 5.888 4.778667 10.666667 10.666666 10.666667h597.333334a10.666667 10.666667 0 0 0 10.666666-10.666667V311.893333l-194.56-194.56H213.333333zM138.666667 128c0-41.216 33.450667-74.666667 74.666666-74.666667h426.666667a32 32 0 0 1 22.613333 9.386667l213.333334 213.333333c6.016 5.973333 9.386667 14.122667 9.386666 22.613334v597.333333A74.666667 74.666667 0 0 1 810.666667 970.666667H213.333333A74.666667 74.666667 0 0 1 138.666667 896V128z" p-id="17386" fill="#691bfd"></path><path d="M416 384a32 32 0 0 1 32-32h213.333333a32 32 0 0 1 0 64h-213.333333A32 32 0 0 1 416 384z" p-id="17387" fill="#691bfd"></path><path d="M554.666667 352a32 32 0 0 1 32 32v256a32 32 0 0 1-64 0V384a32 32 0 0 1 32-32z" p-id="17388" fill="#691bfd"></path><path d="M384 608a32 32 0 0 1 32 32 53.333333 53.333333 0 0 0 106.666667 0 32 32 0 0 1 64 0 117.333333 117.333333 0 1 1-234.666667 0 32 32 0 0 1 32-32z" p-id="17389" fill="#691bfd"></path></svg>