<?xml version="1.0" standalone="no"?><!DOCTYPE svg PUBLIC "-//W3C//DTD SVG 1.1//EN" "http://www.w3.org/Graphics/SVG/1.1/DTD/svg11.dtd"><svg t="1737364439496" class="icon" viewBox="0 0 1060 1024" version="1.1" xmlns="http://www.w3.org/2000/svg" p-id="24018" xmlns:xlink="http://www.w3.org/1999/xlink" width="265" height="256"><path d="M336.549959 1022.139145C331.959614 1022.139145 327.263338 1021.256386 322.778924 1019.349628 126.700579 936.052524 0.007062 744.211421 0.007062 530.513214 0.007062 238.002317 237.116028 0.010593 528.532303 0.010593 819.98389 0.010593 1057.128166 238.002317 1057.128166 530.513214 1057.128166 741.492524 936.437407 933.192386 749.645683 1018.925903 731.99051 1027.011972 710.945545 1019.279007 702.824166 1001.553214 694.702786 983.827421 702.471062 962.853076 720.196855 954.731697 881.953545 880.474041 986.507476 713.950455 986.507476 530.513214 986.507476 276.949628 781.07189 70.631283 528.532303 70.631283 276.063338 70.631283 70.627752 276.949628 70.627752 530.513214 70.627752 715.821903 180.442924 882.168938 350.356303 954.307972 368.329269 961.935007 376.697821 982.69749 369.070786 1000.635145 363.35051 1014.053076 350.285683 1022.139145 336.549959 1022.139145" fill="#691bfd" p-id="24019"></path><path d="M528.549959 612.034207C509.058648 612.034207 493.239614 596.250483 493.239614 576.723862L493.239614 373.689379C493.239614 354.162759 509.058648 338.379034 528.549959 338.379034 548.041269 338.379034 563.860303 354.162759 563.860303 373.689379L563.860303 576.723862C563.860303 596.250483 548.041269 612.034207 528.549959 612.034207" fill="#691bfd" p-id="24020"></path><path d="M828.691421 612.034207 528.55349 612.034207C509.062179 612.034207 493.243145 596.250483 493.243145 576.723862 493.243145 557.197241 509.062179 541.413517 528.55349 541.413517L828.691421 541.413517C848.182731 541.413517 864.001766 557.197241 864.001766 576.723862 864.001766 596.250483 848.182731 612.034207 828.691421 612.034207" fill="#691bfd" p-id="24021"></path></svg>