<?xml version="1.0" standalone="no"?><!DOCTYPE svg PUBLIC "-//W3C//DTD SVG 1.1//EN" "http://www.w3.org/Graphics/SVG/1.1/DTD/svg11.dtd"><svg t="1737364562385" class="icon" viewBox="0 0 1024 1024" version="1.1" xmlns="http://www.w3.org/2000/svg" p-id="28981" xmlns:xlink="http://www.w3.org/1999/xlink" width="256" height="256"><path d="M303.104 256.512h12.8c18.944 0 26.624-27.648 26.624-46.592V57.344c0-18.944-9.728-40.448-28.672-40.448h-12.8c-18.944 0-27.648 20.992-27.648 40.448v159.232c0 12.288 10.752 39.936 29.696 39.936z m408.064 0h12.8c18.944 0 27.648-27.648 27.648-46.592V57.344c0-18.944-7.168-40.448-26.624-40.448h-12.8c-18.944 0-28.672 20.992-28.672 40.448v159.232c0.512 12.288 14.848 39.936 27.648 39.936z m181.248-171.008h-105.984v67.584h105.984c38.4 0 70.144 37.376 70.144 75.776v63.488H65.536V228.864c0-38.4 31.744-75.776 70.144-75.776h103.936V85.504h-97.28C65.536 85.504 0 165.376 0 235.52v616.96c0 70.144 65.536 155.136 142.336 155.136h756.736c70.144 0 124.928-78.848 124.928-155.136V235.52c-6.144-70.144-54.784-150.016-131.584-150.016z m66.56 760.32c0 44.544-22.016 93.184-66.56 93.184H142.336c-38.4 0-74.24-48.64-74.24-87.04V356.352h890.88v489.472zM649.728 85.504H376.32v67.584h273.408V85.504z" p-id="28982" fill="#691bfd"></path><path d="M92.16 715.776h113.664v-16.384h-76.8v-26.112c-5.12 6.656-10.24 12.8-15.872 18.944-7.168-6.144-15.872-12.8-26.112-19.456 17.408-19.968 31.232-39.936 40.96-60.928h-13.312V503.808h207.36v108.032H242.688v15.872h91.136v28.16H242.688v15.872h83.968v27.136H242.688v16.384h102.4v28.16H92.16v-27.648z m37.376-44.032h76.288v-15.872H140.8c-3.584 5.632-7.168 11.264-11.264 15.872z m33.28-53.76c-1.536 3.584-3.584 6.656-5.12 9.728h48.128v-15.872H148.48l14.336 6.144z m123.392-84.992H151.04v13.824h135.168v-13.824z m0 50.176v-13.824H151.04v13.824h135.168zM522.24 550.4h-14.848v111.616h14.848v30.72h-39.424c9.728 9.728 19.456 19.968 28.672 30.72 12.288-17.408 18.944-49.664 18.944-97.28V505.856h98.816v214.528c0 8.704-2.048 15.872-6.144 20.48-4.096 4.608-10.24 7.68-17.408 8.192-7.68 0.512-19.456 1.024-35.328 1.024-1.536-8.704-4.096-20.48-7.68-34.816 9.728 0.512 17.408 1.024 22.528 1.024 7.68 0 11.776-4.096 11.776-12.288V670.72h-35.328c-1.536 32.256-10.24 59.904-25.088 82.944-7.168-5.632-15.872-11.264-25.088-17.408l-18.944 14.336c-11.264-14.336-22.528-28.16-34.304-40.96l23.552-17.92H423.936l23.552 17.92c-12.8 15.872-26.112 30.72-39.424 43.52-8.704-8.192-16.896-15.872-24.576-22.016 12.8-11.776 24.576-25.088 34.816-39.424h-36.352v-30.72h19.968v-111.616h-16.896v-30.72h16.896v-21.504h31.744v21.504h39.936v-21.504h32.768v21.504h14.848v31.744zM434.688 568.32h39.936v-17.92h-39.936v17.92z m0 45.568h39.936v-17.92h-39.936v17.92z m0 47.616h39.936v-19.456h-39.936v19.456z m128-21.504h33.792v-33.792h-33.792v33.792z m33.792-100.864h-33.792v35.84h33.792v-35.84zM901.632 651.264c12.8 4.608 24.576 8.704 35.328 11.264-3.584 37.376-7.168 58.88-10.24 65.024-3.072 6.144-7.168 10.752-13.312 13.824-6.144 3.072-13.312 4.608-23.04 4.608h-21.504c-25.6 0-38.4-14.336-38.4-43.52v-157.184H762.88v83.968c0 53.76-18.944 94.208-56.832 121.856-8.704-10.24-18.944-20.48-30.208-30.72 32.256-22.016 48.128-56.32 48.128-102.912V508.416h147.968v186.368c0 8.704 3.072 13.312 9.728 12.8h4.608c5.632 0 9.216-2.56 10.752-7.68 2.048-5.632 3.072-22.016 4.608-48.64z" p-id="28983" fill="#691bfd"></path></svg>