<?xml version="1.0" standalone="no"?><!DOCTYPE svg PUBLIC "-//W3C//DTD SVG 1.1//EN" "http://www.w3.org/Graphics/SVG/1.1/DTD/svg11.dtd"><svg t="1737364226170" class="icon" viewBox="0 0 1024 1024" version="1.1" xmlns="http://www.w3.org/2000/svg" p-id="20727" xmlns:xlink="http://www.w3.org/1999/xlink" width="256" height="256"><path d="M832 128h-64V64h-64v64H320V64h-64v64h-64a64.19 64.19 0 0 0-64 64v640a64.19 64.19 0 0 0 64 64h640a64.19 64.19 0 0 0 64-64V192a64.19 64.19 0 0 0-64-64z m0 704H192V256h640z" fill="#691bfd" p-id="20728"></path><path d="M544 768V320H256v64h224v128H256v64h224v128H256v64h288zM704 320h64v448h-64z" fill="#691bfd" p-id="20729"></path></svg>