<?xml version="1.0" standalone="no"?><!DOCTYPE svg PUBLIC "-//W3C//DTD SVG 1.1//EN" "http://www.w3.org/Graphics/SVG/1.1/DTD/svg11.dtd"><svg t="1733976744032" class="icon" viewBox="0 0 3242 1024" version="1.1" xmlns="http://www.w3.org/2000/svg" p-id="11871" xmlns:xlink="http://www.w3.org/1999/xlink" width="810.5" height="256"><path d="M580.267 148.48H2752a373.333 373.333 0 0 1 375.467 375.467A373.333 373.333 0 0 1 2752 899.413H580.267V148.48z" fill="#74537F" p-id="11872"></path><path d="M627.2 182.187h2107.733a341.333 341.333 0 0 1 341.334 341.333 341.333 341.333 0 0 1-341.334 341.333H567.467V241.92a58.453 58.453 0 0 1 59.733-59.733z" fill="#F5F0F7" p-id="11873"></path><path d="M93.867 523.52A469.333 469.333 0 1 0 563.2 54.187 469.333 469.333 0 0 0 93.867 523.52z" fill="#DAC6DE" p-id="11874"></path><path d="M187.733 523.52A375.467 375.467 0 1 0 563.2 148.053 373.333 373.333 0 0 0 187.733 523.52z" fill="#74537F" p-id="11875"></path><path d="M221.867 523.52A341.333 341.333 0 1 0 563.2 182.187 341.333 341.333 0 0 0 221.867 523.52z" fill="#F4ECF4" p-id="11876"></path><path d="M808.107 284.587L381.44 813.653a341.333 341.333 0 0 0 426.667-529.066z" fill="#9474A3" p-id="11877"></path><path d="M546.133 768a20.053 20.053 0 0 1 21.334 21.333 20.053 20.053 0 0 1-21.334 21.334 20.053 20.053 0 0 1-21.333-21.334A20.053 20.053 0 0 1 546.133 768z m85.334 0a20.053 20.053 0 0 1 21.333 21.333 20.053 20.053 0 0 1-21.333 21.334 20.053 20.053 0 0 1-21.334-21.334A20.053 20.053 0 0 1 631.467 768z" fill="#FAFAFB" p-id="11878"></path><path d="M512 386.987l46.933 93.866h4.267l106.667 17.067a4.267 4.267 0 0 1 4.266 4.267v4.266l-76.8 72.534v4.266L614.4 689.92c0 4.267 0 4.267-4.267 4.267h-4.266L512 642.987h-4.267l-93.866 51.2H409.6v-4.267l17.067-106.667v-4.266l-76.8-72.534v-4.266h4.266L460.8 485.12h4.267L512 386.987z" fill="#FCF7FA" p-id="11879"></path><path d="M776.533 480.853c-8.533 0-8.533-4.266-12.8-8.533v-8.533L768 429.653l-21.333-21.333a12.8 12.8 0 0 1 0-17.067 14.933 14.933 0 0 1 8.533-4.266l29.867-4.267 17.066-29.867c4.267-4.266 4.267-4.266 8.534-4.266s8.533 0 8.533 4.266L832 382.72l29.867 4.267a14.933 14.933 0 0 1 8.533 4.266c0 4.267 4.267 8.534 0 8.534s0 4.266-4.267 8.533L844.8 429.653l4.267 29.867c0 8.533-4.267 12.8-12.8 17.067h-8.534l-29.866-12.8-29.867 12.8c12.8 4.266 12.8 4.266 8.533 4.266z m4.267-42.666l-4.267 29.866v4.267l4.267 4.267h4.267l25.6-12.8h8.533l25.6 12.8h4.267a4.267 4.267 0 0 0 4.266-4.267l-4.266-29.867v-8.533l21.333-21.333v-4.267c0-4.267 0-4.267-4.267-4.267l-29.866-4.266c-4.267 0-4.267-4.267-8.534-4.267l-12.8-25.6H806.4l-12.8 25.6c0 4.267-4.267 4.267-8.533 4.267l-29.867 4.266v8.534l25.6 25.6z" fill="#56366B" p-id="11880"></path><path d="M816.64 358.4l12.8 29.867a4.267 4.267 0 0 0 4.267 4.266l29.866 4.267a9.387 9.387 0 0 1 8.534 8.533 4.267 4.267 0 0 1-4.267 4.267l-21.333 21.333v4.267l4.266 29.867a9.387 9.387 0 0 1-8.533 8.533h-4.267l-25.6-12.8h-4.266l-25.6 12.8c-4.267 4.267-8.534 0-12.8-4.267v-4.266l4.266-29.867v-4.267L752.64 409.6a8.107 8.107 0 0 1 0-12.8 4.267 4.267 0 0 0 4.267-4.267l29.866-4.266A4.267 4.267 0 0 0 791.04 384l12.8-29.867a15.787 15.787 0 0 1 12.8 4.267z" fill="#FCF7FA" p-id="11881"></path><path d="M1493.333 549.547l-17.066 136.533c0 8.533-8.534 17.067-12.8 25.6a60.587 60.587 0 0 1-25.6 8.533h-89.6l34.133-34.133 12.8-93.867h-213.333l-17.067 133.12h-98.133l25.6-170.666z m-230.4-170.667v-8.533l-12.8-17.067h115.2l-4.266 29.867h166.4l-8.534 46.933h-426.666L1100.8 384z m192 64l-12.8 93.867H1139.2l12.8-93.867z m-89.6 157.44l-12.8 82.347h-166.4l12.8-81.067z m-17.066-106.667v-17.066h-102.4v17.066zM1292.8 651.52V640h-38.4v12.8z m392.533 51.627l-145.066 8.533 8.533-46.933 149.333-8.534z m-115.2-233.814l68.267-106.666-8.533-12.8h106.666l-76.8 119.466h59.734l-76.8 115.2h59.733l-8.533 46.934H1548.8l8.533-46.934L1600 516.267h-34.133z m302.934 251.734l-12.8-21.334-12.8 21.334h-85.334L1817.6 627.2l-21.333-42.667-34.134 136.534H1689.6l85.333-311.467h-29.866l8.533-46.933h243.2l-8.533 46.933-29.867 59.733h34.133L1984 516.267l-72.533 106.666 55.466 93.867z m-25.6-311.467l-34.134 115.2H1856l12.8 25.6 21.333-34.133h-42.666L1894.4 409.6z m473.6 310.613l-8.534-12.8-268.8 12.8 8.534-46.933 89.6-75.947h-115.2l8.533-46.933h409.6l-8.533 46.933H2252.8l-81.067 72.534 128-8.534-25.6-38.4h85.334l51.2 98.134z m42.666-217.6l-4.266 21.334h-251.734l4.267-21.334h-89.6l123.733-136.533-12.8-12.8h217.6l93.867 149.333z m-217.6-29.866h187.734l-46.934-72.534H2214.4z m618.667 102.4l-4.267 38.4 136.534 106.666h-136.534L2700.8 673.28l-72.533 46.933h-140.8l166.4-106.666 4.266-38.4z m153.6-68.267l-21.333 140.8H2841.6l-38.4-29.867 8.533-64h-196.266l-8.534 64L2560 647.68h-55.467l21.334-140.8z m-362.667-128l-17.066-17.067h388.266l-17.066 128h-371.2z m264.534 55.467l4.266-29.867H2649.6l-4.267 29.867z" fill="#563A70" p-id="11882"></path><path d="M514.133 388.693l46.934 93.867h4.266L672 499.627a4.267 4.267 0 0 1 4.267 4.266v4.267l-78.934 72.533v4.267L614.4 691.627c0 4.266 0 4.266-4.267 4.266h-4.266L512 644.693l-98.133 51.2H409.6v-4.266l17.067-106.667v-4.267l-76.8-72.533v-4.267h4.266L460.8 486.827h4.267L512 392.96c-4.267-8.533 0-8.533 4.267-4.267z" fill="#FFFFFF" p-id="11883"></path></svg>