<?xml version="1.0" standalone="no"?><!DOCTYPE svg PUBLIC "-//W3C//DTD SVG 1.1//EN" "http://www.w3.org/Graphics/SVG/1.1/DTD/svg11.dtd"><svg t="1733976603527" class="icon" viewBox="0 0 3242 1024" version="1.1" xmlns="http://www.w3.org/2000/svg" p-id="11005" xmlns:xlink="http://www.w3.org/1999/xlink" width="810.5" height="256"><path d="M633.173333 151.04h2173.013334a375.04 375.04 0 0 1 375.04 375.04 375.04 375.04 0 0 1-375.04 375.04H633.173333V151.04z" fill="#AD4E26" p-id="11006"></path><path d="M682.666667 184.32h2108.586666a341.333333 341.333333 0 0 1 341.333334 341.333333 341.333333 341.333333 0 0 1-341.333334 341.333334H621.226667V246.186667A61.866667 61.866667 0 0 1 682.666667 184.32z" fill="#F8E7B5" p-id="11007"></path><path d="M1133.226667 379.733333l2.56-17.92-16.213334-20.48h103.253334l-4.266667 37.973334h47.786667l-8.533334 47.36h-47.36l-4.266666 29.013333h57.173333l-6.826667 48.64h-37.973333l-5.12 38.4h38.4l-6.826667 49.066667h-38.826666l-8.106667 58.453333h267.946667l-7.253334 49.066667H1186.133333l-89.6-28.16-8.106666 32.426666h-58.453334l36.693334-162.986666-12.373334-16.213334h77.653334L1109.333333 615.68l15.36 4.266667 15.786667-114.773334h-81.493333L1066.666667 456.533333h57.173333l4.266667-29.013333H1079.466667l7.253333-49.066667z m341.333333 128l-17.92 132.266667h-202.666667l18.346667-133.12z m5.973333-47.786666a42.666667 42.666667 0 0 1-13.226666 25.173333 37.546667 37.546667 0 0 1-26.026667 10.24h-66.133333l33.706666-33.28 8.533334-61.44h-22.613334l-48.213333 92.586667h-72.533333L1322.666667 398.506667h-38.826667l5.973333-46.933334h204.373334zM1389.226667 597.333333l7.68-55.466666h-57.6l-7.68 55.466666zM1653.333333 693.333333l-146.773333 9.813334 6.826667-48.64 147.626666-9.813334z m-113.066666-233.386666l66.56-104.96L1595.733333 341.333333h107.093334l-75.093334 117.76h60.16l-76.8 117.333334h58.453334L1664 625.493333h-146.773333l6.826666-48.64 42.666667-68.266666h-33.706667z m302.506666 250.453333l-12.8-22.186667-14.933333 22.186667h-85.333333l56.746666-92.586667-23.466666-42.666666-33.28 135.253333h-72.96l85.333333-310.186667h-29.866667l6.826667-48.64H1962.666667l-6.826667 48.64-31.573333 58.026667h33.28l-7.253334 48.64L1877.333333 615.253333l53.76 95.146667z m-26.88-310.186667l-34.133333 116.48h42.666667l13.226666 24.746667 21.333334-34.986667h-42.666667l46.506667-106.666666zM2373.546667 710.4l-6.826667-12.8-270.933333 12.8 7.253333-47.786667 88.746667-77.653333h-116.906667l6.826667-48.64h408.32l-6.826667 48.64h-185.173333l-81.92 72.106667 128-6.826667-18.346667-36.266667h85.333333l49.493334 96.426667z m45.226666-218.026667l-2.56 19.626667H2163.2l2.56-19.626667H2077.866667l125.44-136.533333-11.093334-14.506667h218.453334l95.146666 150.613334z m-218.88-29.44H2389.333333l-46.933333-72.533333h-73.813333zM2819.84 565.333333l-5.546667 39.253334 136.106667 105.386666h-137.813333l-60.586667-46.08-72.533333 46.08h-138.24l165.973333-105.386666 5.546667-39.253334z m150.613333-68.266666L2950.4 640h-55.893333l-35.84-28.586667 9.386666-63.573333h-196.266666l-9.386667 63.573333-45.226667 28.586667H2560l20.053333-141.226667z m-361.386666-128l-16.213334-18.773334h388.693334l-17.493334 128H2594.133333zM2873.173333 426.666667l4.266667-29.013334h-174.933333l-4.266667 29.013334z" fill="#AD4E26" p-id="11008"></path><path d="M55.04 526.08a469.333333 469.333333 0 1 0 469.333333-469.333333 469.333333 469.333333 0 0 0-469.333333 469.333333z" fill="#F5AE18" p-id="11009"></path><path d="M148.906667 526.08a375.466667 375.466667 0 1 0 375.466666-375.466667 375.466667 375.466667 0 0 0-375.466666 375.466667z" fill="#974B23" p-id="11010"></path><path d="M184.32 526.08a341.333333 341.333333 0 1 0 341.333333-341.333333 341.333333 341.333333 0 0 0-341.333333 341.333333z" fill="#EEE1B4" p-id="11011"></path><path d="M774.4 287.573333l-426.666667 526.933334a341.333333 341.333333 0 0 0 426.666667-526.933334z" fill="#DF872B" p-id="11012"></path><path d="M507.306667 775.68m15.36 0l3.413333 0q15.36 0 15.36 15.36l0 3.413333q0 15.36-15.36 15.36l-3.413333 0q-15.36 0-15.36-15.36l0-3.413333q0-15.36 15.36-15.36Z" fill="#FAFAFB" p-id="11013"></path><path d="M592.64 775.68m15.36 0l3.413333 0q15.36 0 15.36 15.36l0 3.413333q0 15.36-15.36 15.36l-3.413333 0q-15.36 0-15.36-15.36l0-3.413333q0-15.36 15.36-15.36Z" fill="#FAFAFB" p-id="11014"></path><path d="M421.973333 775.68m15.36 0l3.413334 0q15.36 0 15.36 15.36l0 3.413333q0 15.36-15.36 15.36l-3.413334 0q-15.36 0-15.36-15.36l0-3.413333q0-15.36 15.36-15.36Z" fill="#FAFAFB" p-id="11015"></path><path d="M718.08 464.213333l-66.56-109.226666a19.626667 19.626667 0 0 0-15.36-10.24h-221.866667a14.933333 14.933333 0 0 0-15.36 10.24l-68.266666 110.933333a21.76 21.76 0 0 0 0 20.48l177.493333 203.093333a18.346667 18.346667 0 0 0 25.6 0l179.2-204.8a17.92 17.92 0 0 0 5.12-20.48z" fill="#FFFFFF" p-id="11016"></path><path d="M523.093333 704a27.733333 27.733333 0 0 1-19.626666-8.533333l-177.493334-203.52a30.293333 30.293333 0 0 1-2.986666-29.866667l67.84-110.506667a23.466667 23.466667 0 0 1 23.04-15.36h221.866666a26.88 26.88 0 0 1 22.613334 14.08L725.333333 460.373333a26.026667 26.026667 0 0 1-3.413333 30.293334l-180.906667 206.506666a29.013333 29.013333 0 0 1-17.92 6.826667zM414.293333 353.28c-2.986667 0-6.4 0-7.253333 3.84v2.56L337.92 469.333333a13.226667 13.226667 0 0 0 0 11.093334L516.266667 682.666667a10.24 10.24 0 0 0 13.653333 0l178.773333-204.373334a9.813333 9.813333 0 0 0 0-10.666666L644.266667 359.253333c0-2.133333-4.693333-5.973333-8.106667-5.973333z" fill="#974B23" p-id="11017"></path><path d="M617.386667 448.853333l-92.16 100.693334-92.16-100.693334a18.346667 18.346667 0 1 0-30.72 19.626667l3.413333 4.266667L512 588.8a18.773333 18.773333 0 0 0 25.6 0l102.4-116.053333a24.32 24.32 0 0 0 6.826667-17.066667 37.12 37.12 0 0 0-5.12-8.533333 18.773333 18.773333 0 0 0-24.32 1.706666z" fill="#974B23" p-id="11018"></path></svg>