<?xml version="1.0" standalone="no"?><!DOCTYPE svg PUBLIC "-//W3C//DTD SVG 1.1//EN" "http://www.w3.org/Graphics/SVG/1.1/DTD/svg11.dtd"><svg t="1733976782999" class="icon" viewBox="0 0 3242 1024" version="1.1" xmlns="http://www.w3.org/2000/svg" p-id="16710" xmlns:xlink="http://www.w3.org/1999/xlink" width="810.5" height="256"><path d="M594.773333 179.2h2171.733334a373.333333 373.333333 0 0 1 375.466666 375.466667 373.333333 373.333333 0 0 1-375.466666 375.466666h-2171.733334V179.2z" fill="#C7C7C7" p-id="16711"></path><path d="M640 213.333333h2107.733333a341.333333 341.333333 0 0 1 341.333334 341.333334 341.333333 341.333333 0 0 1-341.333334 341.333333H581.973333V273.066667A58.453333 58.453333 0 0 1 640 213.333333z" fill="#F2F2F2" p-id="16712"></path><path d="M1226.24 418.133333v8.533334l-42.666667 307.2h-93.866666l42.666666-290.133334-29.866666 4.266667 6.826666-59.733333 123.733334-25.6zM1322.666667 473.6l-34.133334 145.066667h21.333334l21.333333-162.133334H1237.333333l8.533334-46.933333h93.866666l4.266667-21.333333-17.066667-21.333334h110.933334l-4.266667 42.666667h93.866667l-8.533334 46.933333h-93.866666l-21.333334 162.133334h21.333334l8.533333-145.066667h64l-12.8 256h-64l4.266667-64h-29.866667l-8.533333 72.533333h-93.866667l8.533333-72.533333h-25.6l-12.8 64h-64l59.733334-256zM1648.64 601.6l-8.533333 51.2-85.333334 8.533333 8.533334-51.2z m-76.8-25.6l38.4-132.266667h51.2l-25.6 81.066667h17.066667l34.133333-102.4h-93.866667l8.533334-46.933333h157.866666L1749.333333 422.4l-29.866666 102.4h17.066666l-25.6 170.666667a36.693333 36.693333 0 0 1-12.8 25.6 60.586667 60.586667 0 0 1-25.6 8.533333h-98.133333l34.133333-46.933333h38.4l17.066667-110.933334z m426.666667-25.6l-46.933334 128h29.866667l-8.533333 46.933333h-256l8.533333-46.933333h162.133333l46.933334-128z m-81.066667-68.266667l-12.8-68.266666h-21.333333l-55.466667 110.933333h-72.533333l72.533333-132.266667-17.066667-17.066666h157.866667l38.4 153.6h-72.533333l-4.266667-29.866667-12.8 34.133333H1834.666667l8.533333-46.933333z m-102.4 68.266667v119.466667H1749.333333v-119.466667z m81.066667 0l-4.266667 119.466667h-64l4.266667-119.466667zM2331.306667 738.133333l-8.533334-12.8-268.8 12.8 8.533334-46.933333 89.6-76.8h-119.466667l8.533333-46.933333h409.6l-8.533333 46.933333h-183.466667L2176 686.933333l128-8.533333-17.066667-38.4h85.333334l51.2 98.133333z m46.933333-217.6l-4.266667 17.066667h-251.733333l4.266667-21.333333h-89.6l123.733333-136.533334-12.8-12.8h217.6l93.866667 149.333334z m-217.6-29.866666H2346.666667l-46.933334-72.533334h-72.533333zM2779.306667 588.8l-4.266667 38.4 136.533333 106.666667H2773.333333l-59.733333-46.933334-72.533333 46.933334h-140.8l166.4-106.666667 4.266666-38.4z m149.333333-68.266667l-17.066667 140.8h-55.466666l-38.4-29.866666 8.533333-64h-196.266667l-8.533333 64-46.933333 29.866666H2517.333333l21.333334-140.8z m-358.4-128l-17.066667-17.066666h388.266667l-17.066667 128h-371.2z m264.533333 59.733334l4.266667-29.866667h-174.933333l-4.266667 29.866667z" fill="#C7C7C7" p-id="16713"></path><path d="M104.106667 537.6a469.333333 469.333333 0 1 0 469.333333-469.333333 473.6 473.6 0 0 0-469.333333 469.333333z" fill="#E5E5E5" p-id="16714"></path><path d="M197.973333 537.6a375.466667 375.466667 0 1 0 375.466667-375.466667 373.333333 373.333333 0 0 0-375.466667 375.466667z" fill="#C7C7C7" p-id="16715"></path><path d="M236.373333 537.6a341.333333 341.333333 0 1 0 341.333334-341.333333 341.333333 341.333333 0 0 0-341.333334 341.333333z" fill="#F0F0F0" p-id="16716"></path><path d="M820.906667 302.933333l-426.666667 529.066667a341.333333 341.333333 0 0 0 426.666667-529.066667z" fill="#D7D7D7" p-id="16717"></path><path d="M725.333333 494.933333l-132.266666-170.666666a8.106667 8.106667 0 0 0-12.8 0l-132.266667 170.666666a8.106667 8.106667 0 0 0 0 12.8l132.266667 170.666667a8.106667 8.106667 0 0 0 12.8 0l132.266666-170.666667z" fill="#C7C7C7" p-id="16718"></path><path d="M714.24 494.933333l-123.733333-162.133333a8.106667 8.106667 0 0 0-12.8 0l-123.733334 162.133333a8.106667 8.106667 0 0 0 0 12.8l123.733334 162.133334a8.106667 8.106667 0 0 0 12.8 0l123.733333-162.133334q6.4-12.8 0-12.8z" fill="#FAFAFB" p-id="16719"></path></svg>