<?xml version="1.0" standalone="no"?><!DOCTYPE svg PUBLIC "-//W3C//DTD SVG 1.1//EN" "http://www.w3.org/Graphics/SVG/1.1/DTD/svg11.dtd"><svg t="1733976672792" class="icon" viewBox="0 0 3242 1024" version="1.1" xmlns="http://www.w3.org/2000/svg" p-id="11701" xmlns:xlink="http://www.w3.org/1999/xlink" width="810.5" height="256"><path d="M580.266667 136.533333h2171.733333a373.333333 373.333333 0 0 1 375.466667 375.466667 373.333333 373.333333 0 0 1-375.466667 375.466667H580.266667V136.533333z" fill="#A7B5CE" p-id="11702"></path><path d="M627.2 170.666667h2107.733333a341.333333 341.333333 0 0 1 341.333334 341.333333 341.333333 341.333333 0 0 1-341.333334 341.333333H567.466667V230.4A58.453333 58.453333 0 0 1 627.2 170.666667z" fill="#E8E7EF" p-id="11703"></path><path d="M89.6 512a469.333333 469.333333 0 1 0 469.333333-469.333333 469.333333 469.333333 0 0 0-469.333333 469.333333z" fill="#BDC3D2" p-id="11704"></path><path d="M183.466667 512a375.466667 375.466667 0 1 0 375.466666-375.466667A373.333333 373.333333 0 0 0 183.466667 512z" fill="#474E65" p-id="11705"></path><path d="M217.6 512a341.333333 341.333333 0 1 0 341.333333-341.333333 341.333333 341.333333 0 0 0-341.333333 341.333333z" fill="#E0E1EB" p-id="11706"></path><path d="M806.4 273.066667l-426.666667 529.066666a341.333333 341.333333 0 0 0 469.333334-106.666666 347.733333 347.733333 0 0 0-42.666667-422.4z" fill="#A7B5CE" p-id="11707"></path><path d="M742.4 507.733333l-98.133333-76.8-72.533334-93.866666a8.106667 8.106667 0 0 0-12.8 0l-72.533333 93.866666-93.866667 72.533334a8.106667 8.106667 0 0 0 0 12.8l93.866667 72.533333 72.533333 93.866667a8.106667 8.106667 0 0 0 12.8 0l72.533334-93.866667 93.866666-72.533333c8.533333 0 8.533333-4.266667 4.266667-8.533334z" fill="#474E65" p-id="11708"></path><path d="M733.866667 503.466667L640 430.933333l-68.266667-85.333333a8.106667 8.106667 0 0 0-12.8 0l-68.266666 93.866667-89.6 68.266666a8.106667 8.106667 0 0 0 0 12.8l93.866666 72.533334 68.266667 85.333333a8.106667 8.106667 0 0 0 12.8 0l72.533333-93.866667 85.333334-64c0-4.266667 4.266667-12.8 0-17.066666z" fill="#F4F8F8" p-id="11709"></path><path d="M1041.066667 691.2l42.666666-230.4h34.133334l-42.666667 230.4z m81.066666-238.933333h-51.2l8.533334-46.933334h51.2l8.533333-46.933333-17.066667-17.066667h89.6l-8.533333 59.733334h51.2l-8.533333 46.933333H1194.666667l-38.4 256h-76.8z m59.733334 209.066666l21.333333-200.533333h34.133333l-17.066666 200.533333z m123.733333-128l-42.666667 166.4h-55.466666l42.666666-166.4z m-38.4 174.933334l34.133333-34.133334 25.6-170.666666h-76.8l8.533334-51.2h243.2l-8.533334 51.2h-89.6l-25.6 170.666666a23.466667 23.466667 0 0 1-12.8 21.333334c-8.533333 4.266667-12.8 8.533333-21.333333 8.533333h-76.8z m221.866667-358.4l-8.533334 51.2h-209.066666l8.533333-51.2z m-25.6 183.466666l-4.266667 166.4h-55.466667v-166.4zM1506.133333 699.733333l51.2-183.466666h89.6l-51.2 183.466666z m55.466667-213.333333l-8.533333-128h89.6l8.533333 128z m213.333333-98.133333H1834.666667l4.266666-29.866667-12.8-17.066667h98.133334l-8.533334 46.933334h51.2l-4.266666 46.933333h-51.2l-4.266667 42.666667h46.933333l-8.533333 46.933333h-46.933333l-4.266667 42.666667h46.933333l-4.266666 46.933333h-46.933334l-4.266666 42.666667h64l-4.266667 46.933333h-200.533333v12.8H1664l38.4-281.6-8.533333 4.266667 8.533333-59.733334 98.133333-34.133333z m-34.133333 264.533333h64l4.266667-42.666667h-64z m12.8-89.6h64l4.266667-42.666667h-59.733334z m8.533333-89.6h64l4.266667-42.666667h-59.733333zM2291.2 708.266667l-8.533333-12.8-268.8 12.8 8.533333-46.933334 89.6-76.8h-115.2l8.533333-46.933333h409.6l-8.533333 46.933333h-183.466667l-81.066666 72.533334 128-8.533334-17.066667-38.4h89.6l51.2 98.133334z m46.933333-217.6l-4.266666 21.333333h-251.733334l4.266667-21.333333h-89.6l123.733333-136.533334-8.533333-12.8h217.6l93.866667 149.333334z m-217.6-29.866667h187.733334L2261.333333 388.266667h-72.533333zM2739.2 563.2l-4.266667 38.4 136.533334 106.666667h-136.533334l-59.733333-46.933334-72.533333 46.933334h-136.533334l166.4-106.666667 4.266667-38.4z m149.333333-68.266667l-21.333333 140.8h-55.466667l-38.4-29.866666 8.533334-64h-196.266667l-8.533333 64-46.933334 29.866666H2474.666667l21.333333-140.8z m-362.666666-128l-17.066667-17.066666h388.266667l-17.066667 128h-371.2z m264.533333 59.733334l4.266667-29.866667h-174.933334l-4.266666 29.866667z" fill="#707688" p-id="11710"></path></svg>