<?xml version="1.0" standalone="no"?><!DOCTYPE svg PUBLIC "-//W3C//DTD SVG 1.1//EN" "http://www.w3.org/Graphics/SVG/1.1/DTD/svg11.dtd"><svg t="1733976651021" class="icon" viewBox="0 0 3242 1024" version="1.1" xmlns="http://www.w3.org/2000/svg" p-id="11531" xmlns:xlink="http://www.w3.org/1999/xlink" width="810.5" height="256"><path d="M580.266667 109.653333h2171.733333a373.333333 373.333333 0 0 1 375.466667 375.466667 373.333333 373.333333 0 0 1-375.466667 375.466667H580.266667V109.653333z" fill="#CCB487" p-id="11532"></path><path d="M627.2 144.213333h2107.733333a341.333333 341.333333 0 0 1 341.333334 341.333334 341.333333 341.333333 0 0 1-341.333334 341.333333H567.466667V203.946667a58.453333 58.453333 0 0 1 59.733333-59.733334z" fill="#F3E9E0" p-id="11533"></path><path d="M1211.733333 349.013333v8.533334l-42.666666 307.2h-93.866667l42.666667-290.133334-29.866667 4.266667 8.533333-59.733333 123.733334-25.6z m93.866667 55.466667l-34.133333 145.066667h21.333333l21.333333-162.133334h-93.866666L1228.8 341.333333H1322.666667l4.266666-21.333333-17.066666-21.333333h110.933333l-4.266667 42.666666h93.866667l-8.533333 46.933334H1408l-21.333333 157.866666h21.333333l8.533333-145.066666h64l-12.8 256h-64l4.266667-64h-29.866667l-8.533333 72.533333h-93.866667l8.533334-72.533333h-25.6l-12.8 64h-64l59.733333-256zM1629.866667 532.48l-8.533334 51.2-85.333333 8.533333 8.533333-51.2z m-76.8-25.6l38.4-132.266667h51.2l-25.6 81.066667h17.066666l34.133334-102.4h-93.866667l8.533333-46.933333h157.866667l-8.533333 46.933333-29.866667 102.4h17.066667l-25.6 170.666667a36.693333 36.693333 0 0 1-12.8 25.6 60.586667 60.586667 0 0 1-25.6 8.533333h-98.133334l34.133334-46.933333h38.4l17.066666-110.933334z m426.666666-25.6l-46.933333 128h29.866667l-8.533334 46.933333h-256l8.533334-46.933333h162.133333l46.933333-128z m-76.8-68.266667l-12.8-68.266666h-21.333333l-55.466667 110.933333h-72.533333l72.533333-132.266667-17.066666-17.066666h157.866666l38.4 153.6H1920l-4.266667-29.866667-4.266666 34.133333h-81.066667l8.533333-46.933333z m-102.4 68.266667v119.466667h-64v-119.466667z m81.066667 0l-4.266667 119.466667h-64l4.266667-119.466667zM2316.8 669.013333l-8.533333-12.8-268.8 12.8 8.533333-46.933333 89.6-76.8h-119.466667l8.533334-46.933333h409.6l-8.533334 46.933333h-183.466666l-81.066667 72.533333 128-8.533333-17.066667-38.4h85.333334l51.2 98.133333z m46.933333-217.6l-4.266666 17.066667h-251.733334l4.266667-21.333333h-89.6l123.733333-136.533334L2133.333333 298.666667h217.6l93.866667 149.333333z m-221.866666-29.866666h187.733333l-46.933333-72.533334h-72.533334zM2764.8 519.68l-4.266667 38.4 136.533334 106.666667h-136.533334l-59.733333-46.933334-72.533333 46.933334h-136.533334l166.4-106.666667 4.266667-38.4z m149.333333-68.266667l-21.333333 140.8h-55.466667l-38.4-29.866666 8.533334-64h-192l-8.533334 64-46.933333 29.866666h-55.466667l21.333334-140.8z m-362.666666-128l-17.066667-17.066666h388.266667l-17.066667 128h-371.2zM2816 384l4.266667-29.866667H2645.333333l-4.266666 29.866667z" fill="#8F795A" p-id="11534"></path><path d="M89.6 472.746667a469.333333 469.333333 0 1 0 469.333333-469.333334 469.333333 469.333333 0 0 0-469.333333 469.333334z" fill="#ECDDBC" p-id="11535"></path><path d="M183.466667 469.333333a375.466667 375.466667 0 1 0 375.466666-375.466666A373.333333 373.333333 0 0 0 183.466667 469.333333z" fill="#8F795A" p-id="11536"></path><path d="M217.6 469.333333a341.333333 341.333333 0 1 0 341.333333-341.333333 341.333333 341.333333 0 0 0-341.333333 341.333333z" fill="#F2E3D2" p-id="11537"></path><path d="M806.4 229.546667l-426.666667 524.8a341.333333 341.333333 0 0 0 426.666667-524.8z" fill="#CCB487" p-id="11538"></path><path d="M708.266667 421.12l-132.266667-170.666667a8.106667 8.106667 0 0 0-12.8 0l-132.266667 170.666667a8.106667 8.106667 0 0 0 0 12.8l132.266667 170.666667a8.106667 8.106667 0 0 0 12.8 0l132.266667-170.666667a8.106667 8.106667 0 0 0 0-12.8z" fill="#8F795A" p-id="11539"></path><path d="M699.733333 421.12l-123.733333-157.866667a8.106667 8.106667 0 0 0-12.8 0l-123.733333 157.866667a8.106667 8.106667 0 0 0 0 12.8L563.2 597.333333a8.106667 8.106667 0 0 0 12.8 0l123.733333-162.133333a8.106667 8.106667 0 0 0 0-14.08z" fill="#F4F8F8" p-id="11540"></path></svg>